<svg width="1086" height="524" viewBox="0 0 1086 524" fill="none" xmlns="http://www.w3.org/2000/svg">
<path d="M657.4 -1185.14C682.671 -1195.78 711.493 -1189.98 742.321 -1175.18C773.143 -1160.37 805.864 -1136.61 838.877 -1111.47C871.872 -1086.35 905.159 -1059.85 937.062 -1039.65C968.954 -1019.45 999.554 -1005.47 1027.18 -1005.47C1054.15 -1005.47 1084.41 -1019.28 1116.17 -1039.27C1147.95 -1059.26 1181.32 -1085.51 1214.48 -1110.46C1247.66 -1135.43 1280.64 -1159.11 1311.67 -1174.05C1342.23 -1188.75 1370.8 -1194.92 1395.79 -1185.59L1396.98 -1185.13C1421.57 -1175.16 1437.59 -1150.7 1448.93 -1118.28C1460.26 -1085.87 1466.88 -1045.61 1472.74 -1004.22C1478.6 -962.853 1483.72 -920.344 1492.06 -883.496C1500.4 -846.662 1511.98 -815.371 1530.86 -796.496C1550.4 -776.952 1581.86 -765.198 1618.61 -756.942C1655.38 -748.683 1697.55 -743.904 1738.59 -738.377C1779.64 -732.847 1819.56 -726.568 1851.89 -715.318C1884.22 -704.066 1908.85 -687.878 1919.5 -662.604C1930.14 -637.333 1924.34 -608.511 1909.54 -577.683C1894.73 -546.862 1870.97 -514.14 1845.83 -481.127C1820.71 -448.131 1794.21 -414.844 1774.01 -382.941C1753.81 -351.049 1739.83 -320.448 1739.83 -292.817C1739.83 -265.187 1753.81 -234.42 1774 -202.318C1794.21 -170.206 1820.71 -136.668 1845.83 -103.504C1870.97 -70.3229 1894.73 -37.517 1909.54 -6.82007C1924.34 23.8855 1930.13 52.3683 1919.5 76.9651C1908.86 101.569 1884.06 117.591 1851.51 128.929C1818.97 140.263 1778.8 146.877 1737.58 152.742C1696.37 158.605 1654.12 163.719 1617.48 172.062C1580.85 180.401 1549.73 191.986 1530.86 210.861C1511.31 230.404 1499.56 261.861 1491.3 298.615C1483.05 335.381 1478.27 377.556 1472.74 418.592C1467.21 459.649 1460.93 499.565 1449.68 531.893C1438.43 564.228 1422.24 588.861 1396.97 599.502C1371.7 610.143 1342.87 604.35 1312.05 589.542C1281.23 574.738 1248.5 550.974 1215.49 525.837C1182.5 500.713 1149.21 474.217 1117.31 454.011C1085.41 433.811 1054.82 419.834 1027.18 419.834C1000.22 419.834 969.625 433.643 937.442 453.632C905.247 473.629 871.375 499.871 837.875 524.828C804.359 549.798 771.218 573.48 740.435 588.411C709.639 603.349 681.324 609.47 657.399 599.501H657.398C632.126 588.859 615.771 564.059 604.31 531.514C592.851 498.976 586.32 458.807 580.623 417.584C574.929 376.382 570.066 334.124 561.934 297.486C553.804 260.861 542.386 229.736 523.511 210.861C503.967 191.317 472.511 179.563 435.757 171.307C398.991 163.048 356.817 158.269 315.782 152.741C274.726 147.211 234.809 140.933 202.481 129.683C170.147 118.431 145.515 102.242 134.874 76.969C124.234 51.6978 130.026 22.8762 144.833 -7.9519C159.637 -38.7736 183.402 -71.4948 208.538 -104.508C233.662 -137.503 260.157 -170.791 280.363 -202.694C300.563 -234.586 314.539 -265.186 314.539 -292.817C314.539 -319.779 300.561 -350.213 280.363 -382.186C260.158 -414.172 233.663 -447.794 208.539 -481.125C183.403 -514.472 159.639 -547.53 144.834 -578.436C130.025 -609.352 124.236 -638.003 134.872 -662.6L134.875 -662.607L134.878 -662.615C144.851 -687.88 169.31 -704.234 201.729 -715.696C234.141 -727.155 274.392 -733.685 315.783 -739.383C357.153 -745.077 399.662 -749.94 436.51 -758.073C473.343 -766.202 504.635 -777.62 523.511 -796.496C543.054 -816.04 554.807 -847.496 563.063 -884.25C571.322 -921.016 576.102 -963.192 581.629 -1004.23C587.159 -1045.28 593.438 -1085.2 604.688 -1117.53C615.94 -1149.86 632.127 -1174.49 657.4 -1185.14Z" stroke="white" stroke-opacity="0.2"/>
<path d="M1025.3 -1319.5C1053.4 -1319.65 1078.95 -1302.16 1103.12 -1274.99C1127.28 -1247.83 1149.98 -1211.1 1172.4 -1172.94C1194.82 -1134.81 1216.95 -1095.27 1239.97 -1062.56C1262.98 -1029.87 1286.93 -1003.92 1313 -993.055C1340 -981.806 1375.52 -982.978 1414.82 -989.711C1454.14 -996.446 1497.34 -1008.77 1539.74 -1019.9C1582.15 -1031.03 1623.76 -1040.98 1659.94 -1043C1696.13 -1045.02 1726.77 -1039.1 1747.38 -1018.64C1767.99 -998.186 1773.94 -967.628 1771.87 -931.481C1769.81 -895.342 1759.73 -853.732 1748.44 -811.287C1737.14 -768.862 1724.63 -725.603 1717.71 -686.232C1710.79 -646.874 1709.45 -611.296 1720.58 -584.258C1731.71 -557.221 1757.79 -532.743 1790.5 -509.464C1823.22 -486.177 1862.67 -464.029 1900.63 -441.693C1938.61 -419.347 1975.09 -396.814 2001.96 -372.732C2028.83 -348.644 2045.99 -323.091 2045.49 -294.715C2044.99 -266.331 2027.17 -240.645 1999.88 -216.426C1972.59 -192.214 1935.94 -169.548 1897.95 -147.191C1859.98 -124.845 1820.68 -102.807 1788.19 -79.874C1755.7 -56.9496 1729.91 -33.0682 1719.05 -6.99414C1707.8 20.0052 1708.97 55.5254 1715.71 94.8281C1722.44 134.143 1734.76 177.349 1745.89 219.744C1757.03 262.16 1766.97 303.764 1768.99 339.945C1771.01 376.134 1765.09 406.781 1744.63 427.393C1724.18 448.003 1693.62 453.949 1657.48 451.881C1621.34 449.813 1579.73 439.74 1537.28 428.442C1494.86 417.15 1451.6 404.634 1412.23 397.715C1372.87 390.798 1337.29 389.452 1310.26 400.586C1283.88 411.449 1259.49 437.293 1236.05 469.83C1212.6 502.379 1190.02 541.717 1167.29 579.649C1144.55 617.599 1121.65 654.141 1097.54 681.166C1073.41 708.202 1048.16 725.613 1020.71 725.499C991.67 725.269 965.657 707.58 941.318 680.342C916.985 653.11 894.402 616.421 872.21 578.367C850.028 540.332 828.236 500.931 805.509 468.348C782.79 435.776 759.072 409.919 732.997 399.055C705.998 387.806 670.478 388.979 631.176 395.712C591.862 402.447 548.656 414.767 506.261 425.897C463.845 437.033 422.241 446.977 386.061 448.996C349.873 451.015 319.227 445.099 298.615 424.642C278.005 404.186 272.059 373.628 274.127 337.481C276.195 301.342 286.267 259.732 297.564 217.287C308.857 174.863 321.374 131.603 328.293 92.2334C335.21 52.8752 336.555 17.2967 325.421 -9.74121C314.557 -36.1241 288.615 -60.275 255.958 -83.4297C223.289 -106.593 183.805 -128.822 145.778 -151.321C107.733 -173.831 71.1454 -196.611 44.1943 -220.897C17.2356 -245.191 0.0135267 -270.909 0.510742 -299.285V-299.301C0.0888307 -328.064 17.4461 -353.938 44.5615 -378.227C71.6698 -402.509 108.439 -425.126 146.656 -447.386C184.855 -469.635 224.503 -491.529 257.291 -514.341C290.067 -537.144 316.088 -560.929 326.952 -587.005C338.201 -614.004 337.028 -649.524 330.295 -688.827C323.56 -728.142 311.24 -771.348 300.109 -813.743C288.974 -856.159 279.03 -897.764 277.011 -933.945C274.992 -970.134 280.908 -1000.78 301.365 -1021.39C321.821 -1042 352.378 -1047.95 388.524 -1045.88C424.664 -1043.81 466.273 -1033.74 508.718 -1022.44C551.142 -1011.15 594.401 -998.633 633.771 -991.714C673.128 -984.797 708.706 -983.451 735.744 -994.585C762.126 -1005.45 786.179 -1031.16 809.214 -1063.53C832.256 -1095.91 854.341 -1135.04 876.743 -1172.84C899.156 -1210.65 921.888 -1247.13 946.247 -1274.25C970.612 -1301.38 996.529 -1319.08 1025.3 -1319.5Z" stroke="white" stroke-opacity="0.2"/>
</svg>
