<svg width="1920" height="846" viewBox="0 0 1920 846" fill="none" xmlns="http://www.w3.org/2000/svg">
<path d="M577.952 140.906C604.369 129.784 634.494 135.84 666.71 151.314C698.92 166.786 733.114 191.62 767.61 217.887C802.09 244.141 836.873 271.827 870.209 292.941C903.535 314.049 935.506 328.651 964.372 328.651C992.539 328.651 1024.16 314.224 1057.35 293.336C1090.56 272.441 1125.43 245.018 1160.08 218.939C1194.75 192.848 1229.21 168.1 1261.64 152.497C1293.57 137.133 1323.44 130.685 1349.56 140.435L1350.8 140.911C1376.51 151.335 1393.25 176.899 1405.1 210.781C1416.95 244.654 1423.86 286.72 1429.98 329.973C1436.11 373.205 1441.46 417.623 1450.17 456.127C1458.89 494.616 1470.99 527.309 1490.71 547.027C1511.13 567.445 1543.99 579.727 1582.4 588.354C1620.82 596.984 1664.89 601.978 1707.77 607.754C1750.67 613.533 1792.38 620.094 1826.17 631.851C1859.96 643.61 1885.7 660.529 1896.83 686.947C1907.95 713.364 1901.89 743.489 1886.42 775.705C1870.95 807.915 1846.11 842.11 1819.85 876.607C1793.59 911.088 1765.91 945.87 1744.79 979.206C1723.69 1012.53 1709.08 1044.5 1709.08 1073.37C1709.08 1102.24 1723.69 1134.38 1744.79 1167.93C1765.91 1201.48 1793.59 1236.53 1819.85 1271.18C1846.11 1305.86 1870.95 1340.14 1886.42 1372.22C1901.9 1404.31 1907.95 1434.08 1896.83 1459.79C1885.71 1485.51 1859.79 1502.25 1825.77 1514.1C1791.77 1525.95 1749.79 1532.86 1706.71 1538.99C1663.66 1545.11 1619.5 1550.46 1581.21 1559.17C1542.94 1567.89 1510.43 1579.99 1490.71 1599.71C1470.29 1620.13 1458.01 1653 1449.38 1691.4C1440.75 1729.82 1435.76 1773.89 1429.98 1816.77C1424.21 1859.67 1417.64 1901.39 1405.89 1935.17C1394.13 1968.96 1377.21 1994.71 1350.79 2005.83C1324.38 2016.96 1294.25 2010.9 1262.03 1995.43C1229.82 1979.95 1195.63 1955.12 1161.13 1928.85C1126.65 1902.6 1091.87 1874.91 1058.54 1853.8C1025.21 1832.69 993.239 1818.09 964.372 1818.09C936.207 1818.09 904.236 1832.52 870.607 1853.4C836.965 1874.3 801.571 1901.72 766.565 1927.8C731.542 1953.89 696.908 1978.64 664.738 1994.25C632.556 2009.86 602.96 2016.25 577.951 2005.83H577.952C551.534 1994.71 534.44 1968.79 522.462 1934.78C510.487 1900.77 503.663 1858.8 497.709 1815.72C491.758 1772.66 486.677 1728.51 478.179 1690.22C469.684 1651.95 457.753 1619.43 438.034 1599.71C417.617 1579.3 384.753 1567.01 346.347 1558.39C307.929 1549.76 263.859 1544.76 220.978 1538.99C178.076 1533.21 136.363 1526.65 102.579 1514.89C68.7888 1503.13 43.0407 1486.21 31.9171 1459.79C20.7945 1433.38 26.8511 1403.25 42.3253 1371.04C57.7964 1338.83 82.6301 1304.63 108.897 1270.13C135.15 1235.65 162.836 1200.87 183.95 1167.53C205.058 1134.21 219.66 1102.24 219.66 1073.37C219.66 1045.2 205.057 1013.41 183.951 979.995C162.838 946.572 135.152 911.44 108.899 876.609C82.632 841.762 57.797 807.217 42.3253 774.918C26.8492 742.61 20.7965 712.663 31.9152 686.951L31.9191 686.944L31.922 686.937C42.3473 660.526 67.9136 643.434 101.793 631.456C135.664 619.481 177.728 612.657 220.98 606.703C264.21 600.752 308.63 595.671 347.133 587.173C385.622 578.678 418.315 566.747 438.034 547.027C458.452 526.609 470.733 493.745 479.36 455.339C487.99 416.921 492.984 372.85 498.76 329.969C504.539 287.066 511.1 245.352 522.857 211.568C534.615 177.778 551.534 152.03 577.952 140.906Z" stroke="white" stroke-opacity="0.4"/>
<path d="M962.403 0.500977C991.781 0.341914 1018.48 18.6242 1043.74 47.0156C1068.99 75.3993 1092.71 113.79 1116.14 153.656C1139.56 193.504 1162.7 234.827 1186.75 269.001C1210.79 303.162 1235.81 330.276 1263.05 341.626C1291.26 353.378 1328.37 352.154 1369.44 345.118C1410.52 338.08 1455.67 325.206 1499.97 313.575C1544.29 301.939 1587.77 291.547 1625.58 289.438C1663.4 287.327 1695.43 293.509 1716.97 314.894C1738.52 336.276 1744.73 368.216 1742.57 405.99C1740.41 443.757 1729.88 487.24 1718.08 531.594C1706.28 575.927 1693.2 621.13 1685.97 662.27C1678.74 703.397 1677.33 740.569 1688.97 768.816C1700.6 797.063 1727.84 822.639 1762.02 846.965C1796.21 871.298 1837.43 894.44 1877.1 917.78C1916.79 941.131 1954.92 964.679 1982.99 989.845C2011.08 1015.02 2029.01 1041.73 2028.49 1071.39C2027.97 1101.06 2009.34 1127.9 1980.82 1153.21C1952.31 1178.52 1914 1202.2 1874.31 1225.56C1834.63 1248.92 1793.56 1271.95 1759.61 1295.91C1725.66 1319.86 1698.72 1344.81 1687.37 1372.05C1675.62 1400.26 1676.84 1437.37 1683.88 1478.44C1690.91 1519.52 1703.79 1564.67 1715.42 1608.97C1727.05 1653.3 1737.45 1696.77 1739.56 1734.58C1741.67 1772.4 1735.48 1804.43 1714.1 1825.98C1692.72 1847.52 1660.78 1853.74 1623 1851.58C1585.24 1849.42 1541.75 1838.89 1497.4 1827.08C1453.07 1815.28 1407.87 1802.2 1366.73 1794.97C1325.6 1787.75 1288.43 1786.34 1260.18 1797.97C1232.62 1809.32 1207.15 1836.32 1182.65 1870.32C1158.14 1904.34 1134.55 1945.44 1110.8 1985.08C1087.03 2024.74 1063.11 2062.92 1037.91 2091.17C1012.7 2119.42 986.299 2137.62 957.606 2137.5C927.251 2137.26 900.064 2118.77 874.629 2090.3C849.2 2061.85 825.6 2023.5 802.41 1983.74C779.231 1943.99 756.458 1902.82 732.71 1868.77C708.97 1834.74 684.19 1807.72 656.948 1796.37C628.742 1784.62 591.63 1785.85 550.562 1792.88C509.481 1799.92 464.333 1812.79 420.031 1824.42C375.709 1836.06 332.232 1846.45 294.422 1848.56C256.605 1850.67 224.572 1844.49 203.026 1823.11C181.483 1801.72 175.269 1769.78 177.431 1732.01C179.592 1694.24 190.117 1650.76 201.923 1606.41C213.723 1562.07 226.802 1516.87 234.032 1475.73C241.26 1434.6 242.665 1397.43 231.033 1369.18C219.683 1341.62 192.579 1316.39 158.454 1292.19C124.317 1267.99 83.0598 1244.76 43.3223 1221.25C3.56667 1197.73 -34.6682 1173.92 -62.833 1148.54C-91.0056 1123.15 -109.009 1096.27 -108.489 1066.61V1066.6C-108.93 1036.53 -90.7863 1009.49 -62.4502 984.104C-34.1209 958.728 4.30442 935.093 44.2402 911.832C84.1573 888.582 125.585 865.705 159.847 841.868C194.096 818.04 221.283 793.189 232.633 765.946C244.385 737.739 243.161 700.627 236.125 659.558C229.087 618.476 216.213 573.329 204.582 529.026C192.946 484.703 182.554 441.226 180.444 403.415C178.334 365.597 184.516 333.565 205.9 312.02C227.283 290.476 259.222 284.261 296.996 286.423C334.763 288.584 378.245 299.11 422.598 310.916C466.93 322.716 512.134 335.795 553.272 343.025C594.399 350.253 631.572 351.658 659.819 340.026C687.381 328.676 712.513 301.815 736.583 267.991C760.661 234.157 783.737 193.262 807.147 153.766C830.568 114.252 854.323 76.1372 879.779 47.79C905.242 19.4363 932.329 0.942374 962.403 0.500977Z" stroke="white" stroke-opacity="0.4"/>
</svg>
