<svg width="181" height="48" viewBox="0 0 181 48" fill="none" xmlns="http://www.w3.org/2000/svg">
<path d="M72.234 29.4255V15.383C72.234 13.9149 69.0406 13.8511 68.849 13.8511V30.2553C68.849 32.4255 69.9347 34.2128 72.234 34.2128C74.5332 34.2128 73.7668 34.0851 74.5332 33.383C72.5533 33.383 72.234 30.8936 72.234 29.4255ZM39.5339 30.4468C38.7675 32.1702 34.1052 31.4681 32.7639 32.7447C31.4227 34.0851 32.1891 38.7447 30.4008 39.5106C28.6764 40.2128 25.9301 36.383 23.9502 36.383C22.0981 36.383 19.2241 40.2128 17.4996 39.5106C15.7752 38.7447 16.4778 34.0851 15.2004 32.7447C13.8592 31.4043 9.1969 32.1702 8.43049 30.383C7.72795 28.6596 11.56 25.9149 11.56 24C11.56 22.1489 7.72795 19.3404 8.43049 17.5532C9.13303 15.8298 13.8592 16.5319 15.2004 15.2553C16.5416 13.9149 15.7752 9.25532 17.4996 8.48936C19.2241 7.78723 21.9704 11.617 23.9502 11.617C25.8024 11.617 28.6126 7.78723 30.4008 8.48936C32.1253 9.19149 31.4227 13.9149 32.7001 15.2553C34.0413 16.5957 38.7036 15.8298 39.47 17.617C40.1726 19.3404 36.3405 22.0851 36.3405 24C36.3405 25.9149 40.2364 28.6596 39.47 30.4468M45.2819 15.2553C44.2601 12.8298 37.8733 13.9149 36.0212 12.0638C34.2329 10.2766 35.1909 3.76596 32.8278 2.80851C30.4009 1.85106 26.5688 7.08511 24.0141 7.08511C21.3956 7.08511 17.6274 1.78723 15.2004 2.80851C12.7735 3.82979 13.8592 10.2128 12.0071 12.0638C10.2188 13.8511 3.7043 12.8298 2.74629 15.2553C1.72442 17.617 7.02541 21.5106 7.02541 24.0638C7.02541 26.6809 1.72442 30.4468 2.74629 32.8723C3.76817 35.2979 10.1549 34.2128 12.0071 36.0638C13.7953 37.8511 12.7735 44.2979 15.2004 45.3192C17.4996 46.2766 21.4594 41.0426 24.0141 41.0426C26.6327 41.0426 30.4009 46.3404 32.8278 45.3192C35.2548 44.2979 34.169 37.9149 36.0212 36.0638C37.8095 34.2766 44.2601 35.234 45.2819 32.8723C46.3038 30.5106 41.0028 26.6809 41.0028 24.0638C41.0028 21.4468 46.3038 17.6809 45.2819 15.2553ZM44.2601 20.2979C43.2382 21.6383 42.4079 22.9149 42.4079 24.0638C42.4079 25.1489 43.2382 26.4255 44.1962 27.7021C46.1122 26.5532 48.0282 25.4043 48.0921 23.9362C48.0921 22.4681 46.2399 21.383 44.3239 20.2979M61.0572 14.9362V32.8085C61.0572 34.3404 64.5699 34.3404 64.5699 34.3404V16.4043C64.5699 14.8723 61.0572 14.8723 61.0572 14.8723M126.266 25.5957H123.711V17.4255H126.266C129.651 17.4255 132.014 18.1915 132.014 21.5106C132.014 24.8298 129.651 25.5957 126.266 25.5957ZM126.266 15.1915H120.262V32.8085C120.262 34.3404 123.775 34.3404 123.775 34.3404V27.8298H126.33C131.247 27.8298 135.59 26.5532 135.59 21.766V21.2553C135.59 16.3404 131.247 15.1915 126.33 15.1915M103.529 31.7234C103.529 31.7234 102.188 32.3617 100.144 32.3617C98.1002 32.3617 96.759 31.5319 96.759 30.383C96.759 27.5745 102.826 28.5957 103.465 26.9362V31.7234H103.529ZM100.08 20.1702C97.2061 20.1702 93.9488 21 93.9488 23.0426C93.9488 25.0851 94.2682 24.4468 95.0346 25.3404C95.0346 23.2979 97.2699 22.4043 100.08 22.4043C102.89 22.4043 103.465 23.2979 103.465 24.5106C102.252 26.8085 93.5018 25.2766 93.5018 30.3192C93.5018 35.3617 96.6313 34.4043 99.6969 34.4043C102.763 34.4043 102.954 33.8936 104.487 33.8936C106.02 33.8936 106.02 33.9575 106.786 34.2766V24.6383C106.786 21.8298 104.423 20.234 100.016 20.234M148.492 20.3617V31.7872C148.492 31.7872 147.023 32.234 145.043 32.234C143.063 32.234 141.594 31.3404 141.594 29.8085V21.8936C141.594 20.4255 138.209 20.3617 138.209 20.3617V30.1915C138.209 33.5106 141.466 34.4043 144.596 34.4043C147.725 34.4043 147.853 33.8298 149.386 33.8298C150.919 33.8298 151.493 34.1489 151.877 34.3404V21.8936C151.877 20.3617 148.492 20.3617 148.492 20.3617ZM162.415 20.1702C160.562 20.1702 159.349 20.7447 157.944 20.7447C156.539 20.7447 156.539 20.617 155.709 20.234V32.6809C155.709 34.2128 159.094 34.2128 159.094 34.2128V22.8511C159.094 22.8511 160.435 22.4681 161.84 22.4681C163.245 22.4681 165.289 23.1702 165.289 24.766C165.736 24.2553 166.502 23.4894 166.502 22.4681C166.502 20.8085 164.714 20.1702 162.478 20.1702M84.1771 20.1702C80.9199 20.1702 79.6426 21.4468 79.6426 21.4468C79.6426 21.4468 79.9619 20.6809 79.9619 19.4043V15.7021C79.9619 13.8511 76.8963 13.9149 76.5769 13.9149V32.7447C76.5769 34.2766 79.9619 34.2766 79.9619 34.2766V24.766C79.9619 23.3617 81.8779 22.3404 83.7939 22.3404C85.71 22.3404 86.8596 23.1702 86.8596 25.0213V32.7447C86.8596 34.2128 90.2445 34.2766 90.2445 34.2766V24.6383C90.2445 21.766 87.4344 20.234 84.241 20.234M11.1129 10.9787C11.8793 10.2128 12.1987 8.74468 12.3903 7.21277C10.2188 6.6383 8.04728 6.06383 7.02541 7.08511C6.00353 8.10638 6.51447 10.1489 7.08927 12.2553C8.74982 12 10.2826 11.7447 11.049 10.9787M27.6546 3.82979C26.5049 1.91489 25.3553 0 23.9502 0C22.5452 0 21.3956 1.85106 20.3098 3.70213C21.651 4.72341 22.9284 5.55319 24.0141 5.55319C25.036 5.55319 26.3133 4.7234 27.5907 3.76596M177.807 31.7234C177.807 31.7234 176.465 32.3617 174.422 32.3617C172.378 32.3617 171.037 31.5319 171.037 30.383C171.037 27.5745 177.104 28.5957 177.743 26.9362V31.7234H177.807ZM174.294 20.1702C171.42 20.1702 168.163 21 168.163 23.0426C168.163 25.0851 168.418 24.4468 169.248 25.3404C169.248 23.2979 171.484 22.4043 174.294 22.4043C177.104 22.4043 177.679 23.2979 177.679 24.5106C176.465 26.8085 167.716 25.2766 167.716 30.3192C167.716 35.3617 170.845 34.4043 173.911 34.4043C176.976 34.4043 177.168 33.8936 178.701 33.8936C180.234 33.8936 180.234 33.9575 181 34.2766V24.6383C181 21.8298 178.637 20.234 174.23 20.234M40.8751 12.3191C41.4499 10.1489 42.0247 8.04255 41.0028 6.95745C39.9809 5.93617 37.8733 6.51064 35.7657 7.08511C36.0212 8.74468 36.2766 10.2766 37.0431 10.9787C37.8095 11.7447 39.2784 12.0638 40.8751 12.3191ZM36.9792 37.0213C36.2128 37.7872 35.8934 39.2553 35.7018 40.7872C37.8733 41.3617 40.0448 41.9362 41.0667 40.9149C42.0886 39.8936 41.5776 37.8511 41.0028 35.7447C39.3423 36 37.8095 36.2553 37.0431 37.0213M20.4375 44.1702C21.5872 46.0851 22.6729 48 24.1419 48C25.5469 48 26.6327 46.1489 27.7184 44.234C26.3772 43.2128 25.0999 42.383 24.0141 42.383C22.9922 42.383 21.7149 43.2128 20.4375 44.1702ZM5.68419 24C5.68419 22.9149 4.85392 21.6383 3.89591 20.3617C1.97989 21.5106 0 22.6596 0 24.1277C0 25.5319 1.85215 26.6809 3.76817 27.766C4.79005 26.4255 5.62032 25.1489 5.62032 24M7.21701 35.6809C6.6422 37.8511 6.0674 39.9575 7.08927 41.0426C8.11115 42.0638 10.2188 41.4894 12.3264 40.9149C12.0709 39.2553 11.8155 37.7872 11.049 37.0213C10.2826 36.2553 8.81369 35.9362 7.21701 35.6809Z" fill="white"/>
</svg>
