<svg width="313" height="52" viewBox="0 0 313 52" fill="none" xmlns="http://www.w3.org/2000/svg">
<path d="M296.32 1.68223H293.218L276.538 51.0201H279.757L294.74 6.07172L309.664 51.0201H313L296.32 1.68223ZM136.074 4.60856H151.525V51.0786H154.51V4.60856H170.02V1.74076H136.133V4.60856H136.074ZM16.6801 1.68223L0 51.0201H3.21896L18.2018 6.07172L33.126 51.0201H36.462L19.782 1.68223H16.6801ZM222.342 27.2583H210.579V4.60856H222.108C230.185 4.60856 234.165 8.06163 234.165 15.7286C234.165 23.3956 230.595 27.1998 222.342 27.1998M237.208 15.7871C237.208 6.77405 232.467 1.68223 222.342 1.68223H207.594V51.0201H210.579V30.2432H221.991C223.162 30.2432 224.332 30.1847 225.386 30.0091L235.862 51.0201H239.257L228.429 29.3653C234.223 27.6095 237.267 23.0444 237.267 15.7871M86.5608 30.6529C82.4639 30.6529 78.7767 28.8386 76.2016 25.9708C78.8353 22.9859 82.581 21.2886 86.5608 21.2886C90.5406 21.2886 94.3448 23.103 96.92 25.9708C94.2863 28.9556 90.5406 30.6529 86.5608 30.6529ZM86.5608 18.3623C81.9372 18.3623 77.6062 20.2351 74.4458 23.5126C73.3338 21.5227 72.69 19.2402 72.69 16.7821C72.69 9.17362 78.8938 2.96982 86.5022 2.96982C94.1107 2.96982 96.92 6.18878 99.144 11.1635L101.836 9.99301C99.144 3.96478 93.1157 0.0434875 86.5022 0.0434875C79.8887 0.0434875 69.7051 7.59341 69.7051 16.8406C69.7051 26.0878 77.255 33.6377 86.5022 33.6377C95.7494 33.6377 95.4568 31.7649 98.6172 28.4874C99.7292 30.4773 100.373 32.7598 100.373 35.2179C100.373 42.8264 94.1692 49.0302 86.5608 49.0302C78.9523 49.0302 76.143 45.8112 73.919 40.8365L71.2268 42.007C73.919 48.0353 79.9473 51.9565 86.5608 51.9565C93.1743 51.9565 103.358 44.4066 103.358 35.1594C103.358 25.9122 95.808 18.3623 86.5608 18.3623Z" fill="white"/>
</svg>
