<svg width="130" height="61" viewBox="0 0 130 61" fill="none" xmlns="http://www.w3.org/2000/svg">
<path d="M5.11868 22.5803C5.4091 13.1053 13.2142 5.51801 22.7255 5.51801C32.2368 5.51801 32.0553 9.69283 32.0553 14.8478C32.0553 20.0028 28.5702 22.5803 24.3228 22.5803H5.11868ZM37.174 14.8478C37.174 6.89752 30.6758 0.399326 22.7255 0.399326C10.2011 0.399326 0 10.6004 0 23.1248V24.3228C0 43.9989 16.0095 60.0447 35.6856 60.0447V54.926C19.9665 54.926 6.97012 42.9824 5.3002 27.699H24.3228C31.4018 27.699 37.174 21.9268 37.174 14.8478ZM74.8925 37.1377C66.0709 37.1377 58.883 29.9497 58.883 21.1282C58.883 12.3066 66.0709 5.11868 74.8925 5.11868C83.7141 5.11868 90.902 12.3066 90.902 21.1282C90.902 29.9497 83.7141 37.1377 74.8925 37.1377ZM123.466 33.9067H107.746C101.575 33.9067 96.5289 28.8606 96.5289 22.6892C96.5289 13.2142 104.261 5.48171 113.736 5.48171H114.535C120.126 5.48171 124.7 10.0195 124.7 15.6465C124.7 15.6828 129.818 15.6828 129.818 15.6828C129.818 7.22424 122.957 0.363027 114.535 0.363027H113.736C105.205 0.363027 97.7995 5.15498 94.024 12.1977C90.6479 5.00977 83.351 0 74.8925 0C66.434 0 53.7643 9.47501 53.7643 21.1282C53.7643 32.7813 63.2393 42.2564 74.8925 42.2564C86.5457 42.2564 90.1033 37.6459 93.6247 30.8936C96.4563 35.7582 101.72 39.0254 107.746 39.0254H123.466C124.228 39.0254 124.881 39.6426 124.881 40.4412C124.881 48.2463 118.528 54.563 110.76 54.563H76.1994C55.0349 54.563 45.1606 38.8802 45.1606 28.3161V0.943867H40.0419V28.3161C40.0419 35.3951 43.3817 43.055 48.9724 48.8634C53.728 53.8006 62.3317 59.6817 76.1994 59.6817H110.76C121.36 59.6817 130 51.0416 130 40.4412C130 29.8408 127.059 33.9067 123.466 33.9067Z" fill="white"/>
</svg>
