<svg width="151" height="40" viewBox="0 0 151 40" fill="none" xmlns="http://www.w3.org/2000/svg">
<g clip-path="url(#clip0_1730_913)">
<path d="M50.9268 12.1918C50.9268 12.1918 53.8016 12.1918 53.8016 13.4932V28.4247C53.8016 28.4247 50.9268 28.4247 50.9268 27.1233V12.1918Z" fill="#004964"/>
<path d="M57.4297 11.3014C57.5666 11.3014 60.2361 11.3014 60.2361 12.6027V24.3151C60.2361 25.6164 60.5099 27.6027 62.1527 27.6027C61.5367 28.2192 60.8522 28.2877 60.2361 28.2877C58.3195 28.2877 57.4297 26.7808 57.4297 25V11.3014Z" fill="#004964"/>
<path d="M66.6019 28.2877C66.6019 28.2877 63.7954 28.2877 63.7954 26.9863V11.3014C64.0692 11.3014 66.6019 11.3014 66.6019 12.8082V15.8904C66.6019 16.9178 66.3281 17.6027 66.3281 17.6027C66.3281 17.6027 67.4232 16.5753 70.0928 16.5753C72.7623 16.5753 75.0896 17.8767 75.0896 20.274V28.2877C75.0896 28.2877 72.2832 28.2877 72.2832 26.9863V20.548C72.2832 18.9726 71.188 18.2877 69.7505 18.2877C68.3131 18.2877 66.5334 19.1096 66.5334 20.274V28.2192L66.6019 28.2877Z" fill="#004964"/>
<path d="M86.2469 20.2055C86.2469 19.2466 85.6993 18.4932 83.4404 18.4932C81.1816 18.4932 79.1965 19.2466 79.1965 20.9589C78.5805 20.2055 78.3067 19.589 78.3067 19.0411C78.3067 17.3288 81.0447 16.6438 83.372 16.6438C86.9998 16.6438 88.9848 18.0137 88.9848 20.3425V28.3562C88.3003 28.0822 87.6843 28.0137 87.0682 28.0137C85.7677 28.0137 84.5356 28.4247 83.0982 28.4247C80.4971 28.4247 77.896 27.6027 77.896 25.0685C77.896 20.8219 85.1517 22.1233 86.1784 20.2055M86.3153 22.1918C85.7677 23.5617 80.7024 22.7397 80.7024 25.0685C80.7024 27.3973 81.5923 26.7123 83.5089 26.7123C85.4255 26.7123 86.3153 26.2329 86.3153 26.2329V22.1918Z" fill="#004964"/>
<path d="M100.279 12.3973H105.276C109.383 12.3973 113.01 13.3562 113.01 17.4658V17.8767C113.01 21.9178 109.383 22.9452 105.276 22.9452H103.154V28.3562C103.154 28.3562 100.279 28.3562 100.279 27.0548V12.3288V12.3973ZM103.222 14.3151V21.0959H105.344C108.151 21.0959 110.136 20.6164 110.136 17.6712C110.136 14.726 108.151 14.3151 105.344 14.3151H103.222Z" fill="#004964"/>
<path d="M118.076 24.5891C118.076 25.8904 118.829 26.5754 120.951 26.5754C123.073 26.5754 123.826 26.1644 123.826 26.1644V16.6438C123.826 16.6438 126.632 16.6438 126.632 17.9452V28.3562C126.29 28.2192 125.537 27.9452 124.579 27.9452C123.62 27.9452 122.115 28.4247 120.609 28.4247C118.008 28.4247 115.27 27.6712 115.27 24.9315V16.7123C115.27 16.7123 118.076 16.7123 118.076 18.0137V24.6575V24.5891Z" fill="#004964"/>
<path d="M132.724 18.8356V28.3562C132.724 28.3562 129.917 28.3562 129.917 27.0548V16.7123C130.602 16.9863 131.218 17.1233 131.766 17.1233C132.929 17.1233 133.956 16.6438 135.462 16.6438C136.968 16.6438 138.816 17.1918 138.816 18.5617C138.816 19.9315 138.2 20 137.858 20.4795C137.858 19.1781 136.557 18.5617 134.983 18.5617C133.408 18.5617 132.724 18.9041 132.724 18.9041" fill="#004964"/>
<path d="M148.194 20.2055C148.194 19.2466 147.646 18.4932 145.387 18.4932C143.128 18.4932 141.143 19.2466 141.143 20.9589C140.527 20.2055 140.253 19.589 140.253 19.0411C140.253 17.3288 142.991 16.6438 145.319 16.6438C148.947 16.6438 150.932 18.0137 150.932 20.3425V28.3562C150.247 28.0822 149.631 28.0137 149.015 28.0137C147.714 28.0137 146.482 28.4247 145.045 28.4247C142.444 28.4247 139.843 27.6027 139.843 25.0685C139.843 20.8219 147.098 22.1233 148.125 20.2055M148.262 22.1918C147.714 23.5617 142.649 22.7397 142.649 25.0685C142.649 27.3973 143.539 26.7123 145.456 26.7123C147.372 26.7123 148.262 26.2329 148.262 26.2329V22.1918Z" fill="#004964"/>
<path d="M10.6782 6.09588C8.76161 5.61643 6.70812 4.9315 5.81828 5.8904C4.92843 6.78081 5.47603 8.76712 6.02363 10.6164C7.52952 10.411 8.96696 10.2055 9.58301 9.52054C10.2675 8.83561 10.4729 7.46575 10.6782 6.02739" fill="#3C8AA4"/>
<path d="M6.0918 29.3151C5.61265 31.2329 4.92816 33.2877 5.88645 34.1781C6.7763 35.0685 8.76134 34.5205 10.6779 33.9726C10.4726 32.4657 10.2672 31.0959 9.58273 30.411C8.89824 29.726 7.52924 29.5205 6.0918 29.3151Z" fill="#3C8AA4"/>
<path d="M16.77 36.4384C17.7968 38.1507 18.7551 40 20.1241 40C21.3561 40 22.3829 38.2192 23.3412 36.5069C22.1775 35.6164 21.0139 34.7945 19.9872 34.7945C19.0289 34.7945 17.9337 35.6164 16.77 36.5069" fill="#3C8AA4"/>
<path d="M23.2727 3.56164C22.246 1.84931 21.2192 0 19.9872 0C18.6866 0 17.7283 1.78082 16.77 3.49315C17.9337 4.38356 19.0973 5.27397 20.1241 5.27397C21.0823 5.27397 22.1775 4.45205 23.3412 3.56164" fill="#3C8AA4"/>
<path d="M33.9509 10.6849C34.43 8.76712 35.1145 6.71233 34.1562 5.82192C33.2664 4.93151 31.2813 5.47945 29.3647 6.0274C29.5701 7.53425 29.7754 8.90411 30.4599 9.58904C31.1444 10.274 32.5134 10.4795 33.9509 10.6849Z" fill="#3C8AA4"/>
<path d="M3.55938 16.7808C1.84814 17.7397 0 18.7671 0 20.0685C0 21.3699 1.77969 22.3288 3.49093 23.2877C4.38078 22.1233 5.27062 20.9589 5.27062 19.9315C5.27062 18.9726 4.44923 17.8767 3.55938 16.7123" fill="#3C8AA4"/>
<path d="M29.3647 33.9041C31.2813 34.3836 33.3348 35 34.2247 34.1096C35.1145 33.2192 34.5669 31.2329 34.0193 29.3836C32.5134 29.589 31.1444 29.7945 30.4599 30.4794C29.7754 31.1644 29.5701 32.5342 29.3647 33.9726" fill="#3C8AA4"/>
<path d="M40.0431 19.9315C40.0431 18.6301 38.2634 17.6712 36.5522 16.7123C35.6623 17.8767 34.7725 19.0411 34.7725 20.0685C34.7725 21.0274 35.5939 22.1233 36.4837 23.2877C38.1949 22.2603 40.0431 21.3014 40.0431 20" fill="#3C8AA4"/>
<path d="M14.3061 6.36986C15.1959 6.02739 15.9488 4.79451 16.7018 3.49314C15.1275 2.32876 13.5531 1.02739 12.3895 1.50684C11.1574 1.9863 10.952 4.10958 10.6782 6.09588C12.0472 6.43835 13.4162 6.78082 14.3061 6.36986Z" fill="#3C8AA4"/>
<path d="M14.443 33.6301C13.5531 33.2877 12.1157 33.6301 10.6782 33.9726C10.952 35.8904 11.1574 37.9452 12.321 38.4247C13.4847 38.9041 15.1275 37.6027 16.7702 36.3699C16.0173 35.137 15.2644 33.9041 14.443 33.5616" fill="#3C8AA4"/>
<path d="M33.6086 14.3151C33.9508 15.2055 35.2514 15.9589 36.4835 16.7123C37.7156 15.137 38.9477 13.5616 38.4685 12.3973C37.9894 11.1644 35.8674 10.9589 33.8824 10.6849C33.5401 12.0548 33.1979 13.4247 33.6086 14.3151Z" fill="#3C8AA4"/>
<path d="M25.6002 6.36986C26.4901 6.78082 27.9275 6.36986 29.365 6.0274C29.0912 4.04109 28.8858 2.05479 27.7222 1.57534C26.4901 1.09589 24.8473 2.39726 23.2729 3.63014C24.0259 4.86301 24.7788 6.09589 25.6002 6.43835" fill="#3C8AA4"/>
<path d="M6.43412 25.6849C6.09187 24.7945 4.85978 24.0411 3.55923 23.2877C2.39559 24.863 1.09504 26.4384 1.57419 27.6027C2.05334 28.8356 4.17528 29.0411 6.16032 29.2466C6.50257 27.8767 6.84482 26.5069 6.43412 25.6164" fill="#3C8AA4"/>
<path d="M6.36595 14.3836C6.70819 13.4932 6.36595 12.0548 6.0237 10.6164C4.10711 10.8904 2.05362 11.0959 1.57447 12.2603C1.09532 13.4932 2.39586 15.0685 3.62796 16.7123C4.86005 15.9589 6.09215 15.2055 6.43439 14.3836" fill="#3C8AA4"/>
<path d="M25.737 33.6301C24.8472 33.9726 24.0943 35.2055 23.3413 36.5068C24.9157 37.7397 26.49 38.9726 27.6536 38.4931C28.8857 38.0137 29.0911 35.8904 29.3649 33.9041C27.9959 33.5616 26.6269 33.2192 25.737 33.6301Z" fill="#3C8AA4"/>
<path d="M33.6774 25.6164C33.3352 26.5069 33.6774 27.9452 34.0197 29.3836C35.9362 29.1096 37.9897 28.9041 38.5373 27.7397C39.0849 26.5069 37.7159 24.9315 36.4838 23.2877C35.2517 24.0411 34.0197 24.7945 33.6774 25.6164Z" fill="#3C8AA4"/>
<path d="M36.5519 16.7123C35.2514 15.9589 34.0193 15.2055 33.677 14.3151C33.3348 13.4247 33.677 12.0548 33.9508 10.6849C32.5134 10.4795 31.1444 10.274 30.4599 9.58904C29.7754 8.90411 29.5701 7.46575 29.3647 6.0274C27.9273 6.43835 26.5583 6.78082 25.6 6.36986C24.7101 6.0274 24.0256 4.86301 23.2727 3.56164C22.109 4.45205 20.9454 5.27397 20.0555 5.27397C19.0972 5.27397 17.8652 4.45205 16.7015 3.49315C15.9486 4.79452 15.1956 6.0274 14.3058 6.36986C13.4159 6.71233 12.0469 6.36986 10.6779 6.09589C10.4726 7.53424 10.2672 8.90411 9.58274 9.58904C8.89825 10.274 7.4608 10.4795 6.02336 10.6849C6.43406 12.1233 6.77631 13.4931 6.36561 14.4521C6.02336 15.3425 4.79127 16.0274 3.55917 16.7808C4.44902 17.9452 5.27041 19.1096 5.27041 20C5.27041 20.8904 4.44902 22.1233 3.49072 23.3562C4.79127 24.1096 6.02336 24.863 6.36561 25.7534C6.70786 26.6438 6.36561 28.0137 6.09181 29.3836C7.52925 29.589 8.89825 29.7945 9.58274 30.4795C10.2672 31.1644 10.4726 32.6027 10.6779 34.0411C12.1154 33.6301 13.4844 33.2877 14.4427 33.6986C15.3325 34.0411 16.017 35.2055 16.77 36.5068C17.9336 35.6164 19.0972 34.7945 19.9871 34.7945C20.8769 34.7945 22.109 35.6164 23.2727 36.5068C24.0256 35.2055 24.7786 33.9726 25.6684 33.6301C26.5583 33.2877 27.9273 33.6301 29.2963 33.9041C29.5016 32.4658 29.707 31.0959 30.3914 30.411C31.0759 29.726 32.5134 29.5205 33.9508 29.3151C33.5401 27.8767 33.1979 26.5068 33.6086 25.5479C33.9508 24.6575 35.1829 23.9041 36.415 23.2192C35.5252 22.0548 34.7038 20.9589 34.7038 20C34.7038 19.0411 35.5252 17.8767 36.4835 16.6438M33.2663 25.4795C32.6503 26.9863 28.6118 26.3014 27.5166 27.4658C26.3529 28.6301 27.0374 32.6027 25.5315 33.2192C24.0256 33.8356 21.6983 30.5479 20.0555 30.5479C18.4812 30.5479 16.017 33.8356 14.5796 33.2192C13.0737 32.6027 13.6897 28.5616 12.5945 27.4658C11.4309 26.3014 7.4608 26.9863 6.84476 25.4795C6.22871 23.9726 9.51429 21.6438 9.51429 20C9.51429 18.4247 6.22871 16.0274 6.84476 14.5205C7.4608 13.0137 11.4993 13.6301 12.5945 12.5342C13.7582 11.3699 13.0737 7.39726 14.5796 6.78082C16.0855 6.16438 18.4128 9.45205 20.0555 9.45205C21.6983 9.45205 24.0256 6.16438 25.5315 6.78082C27.0374 7.39726 26.4214 11.4384 27.5166 12.5342C28.6802 13.6986 32.6503 13.0137 33.2663 14.5205C33.8824 16.0274 30.5968 18.3562 30.5968 20C30.5968 21.6438 33.8824 23.9726 33.2663 25.4795Z" fill="#004964"/>
</g>
<defs>
<clipPath id="clip0_1730_913">
<rect width="151" height="40" fill="white"/>
</clipPath>
</defs>
</svg>
