<svg width="283" height="44" viewBox="0 0 283 44" fill="none" xmlns="http://www.w3.org/2000/svg">
<path d="M227.722 10.3057C227.995 10.2511 228.159 10.2511 228.323 10.3057C228.432 10.3603 228.596 10.5242 228.76 10.7427C228.924 10.9612 228.978 11.2889 228.978 11.7805V25.7639H221.604V11.7805C221.604 11.2889 221.659 10.9612 221.823 10.7427C221.932 10.5242 222.096 10.4149 222.205 10.3057C222.423 10.2511 222.587 10.2511 222.806 10.3057V9.15861H217.016V10.3057C217.289 10.2511 217.453 10.2511 217.617 10.3057C217.781 10.3603 217.944 10.5242 218.054 10.7427C218.218 10.9612 218.272 11.2889 218.272 11.7805V40.949C218.272 41.386 218.218 41.7137 218.054 41.9322C217.89 42.1507 217.781 42.2599 217.617 42.3146C217.507 42.4238 217.289 42.4238 217.016 42.3146V43.5709H222.806V42.3146C222.587 42.4238 222.369 42.4238 222.205 42.3146C222.096 42.3146 221.932 42.1507 221.823 41.9322C221.713 41.7137 221.604 41.386 221.604 40.949V26.911H228.978V40.949C228.978 41.386 228.924 41.7137 228.76 41.9322C228.596 42.1507 228.487 42.2599 228.323 42.3146C228.159 42.4238 227.94 42.4238 227.722 42.3146V43.5709H233.512V42.3146C233.239 42.4238 233.02 42.4238 232.856 42.3146C232.747 42.3146 232.583 42.1507 232.474 41.9322C232.365 41.7137 232.256 41.386 232.256 40.949V11.7805C232.256 11.2889 232.31 10.9612 232.474 10.7427C232.583 10.5242 232.747 10.4149 232.856 10.3057C233.02 10.2511 233.293 10.2511 233.512 10.3057V9.15861H227.722V10.3057ZM204.671 9.10399C204.671 9.10399 204.616 9.10399 204.507 9.10399C204.507 9.70484 204.289 10.1418 203.906 10.3603C203.688 10.4695 203.469 10.4695 203.251 10.3603C202.923 10.1964 202.541 10.0326 202.104 9.75945C201.667 9.54096 201.066 9.32248 200.301 9.15861C200.247 9.15861 200.083 9.15861 199.919 9.04936L200.028 9.15861C199.864 9.15861 199.7 9.15861 199.591 9.15861H199.154C197.898 9.15861 196.696 9.54097 195.495 10.2511C194.784 10.7427 194.129 11.3435 193.583 12.1629C193.036 12.9276 192.709 13.8562 192.6 14.894C192.381 16.0957 192.272 17.6251 192.217 19.4823C192.217 21.3395 192.217 23.6336 192.217 26.4194V31.827C192.217 33.3565 192.217 34.722 192.326 35.8145C192.381 36.9615 192.545 37.8901 192.763 38.7095C192.982 39.4742 193.31 40.1843 193.692 40.7851C194.347 41.7683 195.167 42.4784 196.15 42.97C197.188 43.4616 198.171 43.7348 199.154 43.7348C201.23 43.7348 202.869 43.1885 203.961 42.0414C205.108 40.8944 205.654 39.2557 205.654 37.18V34.722H204.562V36.033C204.562 37.2893 204.453 38.3271 204.18 39.2011C203.906 40.075 203.579 40.7305 203.087 41.2221C202.595 41.7137 202.049 42.0961 201.339 42.3146C200.684 42.5331 199.919 42.6423 199.1 42.6423C198.28 42.6423 197.242 42.2053 196.532 41.386C195.822 40.512 195.495 39.0918 195.495 37.0708C195.495 35.0497 195.495 34.1212 195.495 32.2094C195.495 30.2976 195.495 28.3858 195.495 26.3648C195.495 24.3437 195.495 22.4319 195.495 20.5747C195.495 18.7176 195.495 17.0789 195.495 15.7679C195.495 14.457 195.604 13.9654 195.768 13.2553C195.931 12.5452 196.205 12.0536 196.587 11.6166C196.915 11.1797 197.297 10.9065 197.734 10.688C198.171 10.4696 198.663 10.3603 199.154 10.3057C199.864 10.1964 200.465 10.3057 201.011 10.4696C201.558 10.688 201.995 10.9065 202.377 11.2343C202.759 11.562 203.032 11.8351 203.251 12.1629C203.469 12.4906 203.579 12.7091 203.688 12.8183C203.961 13.3099 204.125 13.8561 204.234 14.4024C204.343 14.9486 204.453 15.4402 204.507 15.8772C204.562 16.4234 204.616 16.9696 204.671 17.4612H205.709V9.04936H204.78C204.78 9.04936 204.726 9.04936 204.671 9.04936M245.147 10.3057C245.42 10.2511 245.583 10.2511 245.747 10.3057C245.911 10.3603 246.075 10.5242 246.184 10.7427C246.348 10.9612 246.403 11.2889 246.403 11.7805V40.949C246.403 41.386 246.348 41.7137 246.184 41.9322C246.02 42.1507 245.911 42.2599 245.747 42.3146C245.638 42.4238 245.42 42.4238 245.147 42.3146V43.5709H258.529V38.5456H257.273C257.273 39.3103 257.164 39.9658 257 40.512C256.836 41.0036 256.563 41.4952 256.18 41.8776C255.798 42.2599 255.306 42.4784 254.651 42.4784H249.68V27.1841H253.067C253.504 27.1841 253.777 27.2933 254.05 27.5664C254.268 27.7849 254.432 28.058 254.542 28.3858C254.651 28.7135 254.76 29.0959 254.76 29.5329H255.853V23.6336H254.76C254.76 24.0706 254.705 24.5076 254.542 24.8353C254.432 25.1084 254.268 25.3815 254.05 25.6C253.832 25.8185 253.504 25.9278 253.067 25.9278H249.68V10.3603H254.651C255.306 10.3603 255.798 10.5788 256.18 11.0158C256.563 11.4528 256.836 11.8897 257 12.3813C257.164 12.9822 257.273 13.6377 257.273 14.3478H258.529V9.32247H245.147V10.4696V10.3057ZM281.689 38.4364C281.689 39.2011 281.58 39.8019 281.416 40.3481C281.252 40.8397 280.979 41.2767 280.651 41.6591C280.269 42.0415 279.777 42.2053 279.122 42.2053H274.588V11.7259C274.588 11.2343 274.643 10.9065 274.807 10.688C274.916 10.4696 275.08 10.3603 275.189 10.2511C275.407 10.1964 275.626 10.1964 275.844 10.2511V9.10399H270.054V10.2511C270.328 10.1964 270.491 10.1964 270.655 10.2511C270.819 10.3057 270.983 10.4696 271.147 10.688C271.311 10.9065 271.365 11.2343 271.365 11.7259V40.8944C271.365 41.3314 271.311 41.6591 271.147 41.8776C270.983 42.0961 270.819 42.2053 270.655 42.2599C270.546 42.3692 270.328 42.3692 270.054 42.2599V43.5163H283V38.491H281.744L281.689 38.4364ZM150.704 23.3605L144.695 0.6921H138.851V2.11228C139.179 2.05765 139.397 2.05765 139.561 2.11228C139.779 2.1669 139.943 2.3854 140.107 2.60389C140.271 2.87701 140.38 3.31398 140.38 3.91483V40.1843C140.38 40.7305 140.271 41.1675 140.107 41.386C139.943 41.6591 139.725 41.7683 139.561 41.823C139.397 41.9322 139.179 41.9322 138.851 41.823V43.4616H143.931V41.823C143.658 41.9322 143.384 41.9322 143.166 41.823C142.948 41.823 142.784 41.6045 142.674 41.386C142.511 41.1129 142.456 40.7305 142.456 40.1843V7.35606C143.166 10.2511 143.876 13.0914 144.586 15.8772C144.859 17.0789 145.187 18.2806 145.46 19.5369C145.788 20.7932 146.116 21.9949 146.389 23.3059C146.716 24.5622 147.044 25.7639 147.372 26.9656C147.7 28.1673 147.973 29.2051 148.191 30.1337H150.704C150.704 30.1337 150.759 29.7514 150.922 29.0413C151.086 28.3858 151.305 27.4572 151.578 26.4194C151.851 25.3269 152.179 24.1252 152.452 22.7597C152.78 21.3941 153.107 20.0285 153.49 18.6083C154.309 15.2763 155.238 11.562 156.275 7.41068V40.2935C156.275 40.8398 156.166 41.2767 155.948 41.4952C155.729 41.7683 155.565 41.9322 155.347 41.9322C155.183 42.0415 154.964 42.0415 154.637 41.9322V43.4616H161.902V41.9322C161.574 42.0415 161.301 42.0415 161.082 41.9322C160.918 41.9322 160.754 41.7137 160.591 41.4952C160.427 41.2221 160.372 40.8398 160.372 40.2935V3.96946C160.372 3.36861 160.427 2.93162 160.591 2.6585C160.754 2.38539 160.918 2.22152 161.082 2.1669C161.301 2.11228 161.574 2.11228 161.902 2.1669V0.746709H156.275L150.595 23.4151L150.704 23.3605ZM175.503 10.3057C175.776 10.2511 175.994 10.2511 176.158 10.3057C176.267 10.3603 176.377 10.5242 176.54 10.7427C176.704 10.9612 176.759 11.2889 176.759 11.7805V40.949C176.759 41.386 176.704 41.7137 176.54 41.9322C176.377 42.1507 176.267 42.2599 176.158 42.3146C175.94 42.4238 175.721 42.4238 175.503 42.3146V43.5709H181.293V42.3146C181.019 42.4238 180.856 42.4238 180.692 42.3146C180.583 42.3146 180.419 42.1507 180.309 41.9322C180.146 41.7137 180.091 41.386 180.091 40.949V11.7805C180.091 11.2889 180.146 10.9612 180.309 10.7427C180.473 10.5242 180.583 10.4149 180.692 10.3057C180.856 10.2511 181.074 10.2511 181.293 10.3057V9.15861H175.503V10.3057ZM8.63038 18.4991C7.97491 17.5705 7.15557 16.478 6.22698 15.2763C5.2984 14.0746 4.53368 12.8729 3.93283 11.5074C3.33198 10.1964 2.94962 8.83087 2.895 7.46531C2.84038 6.09974 3.27736 4.73417 4.26057 3.36861C4.69755 2.82238 5.24377 2.44001 5.95387 2.11228C6.66396 1.78454 7.37406 1.62068 8.1934 1.62068C9.61359 1.62068 10.706 2.11229 11.4161 3.09549C12.1262 4.0787 12.6178 5.17116 12.8909 6.37285C13.2733 7.6838 13.3826 9.26785 13.3279 11.125H15.0212V0.637474H13.3279C13.2187 1.45681 13.1094 1.89379 12.8363 1.94841C12.6178 1.94841 12.2355 1.89379 11.7985 1.56605C11.3615 1.29294 10.8153 0.965206 10.1598 0.582848C9.55897 0.200489 8.84887 0.0366211 8.08415 0.0366211C5.79 0.0366211 4.0967 0.582844 2.94962 1.62068C1.80255 2.65851 0.983208 4.18795 0.436981 6.09974C0.163868 7.35606 0 8.72163 0 10.1418C0 11.562 0.21849 13.0368 0.600848 14.5663C0.983207 16.0957 1.58406 17.6797 2.4034 19.3184C3.22274 20.9571 4.31519 22.5958 5.73538 24.2891C6.44547 25.2723 7.31944 26.4194 8.35727 27.7303C9.3951 29.0959 10.2691 30.4614 11.0338 31.9363C11.7985 33.4111 12.2355 34.9405 12.3993 36.4699C12.5632 37.9994 12.1262 39.4742 11.143 40.8398C10.706 41.386 10.1052 41.8776 9.3951 42.2053C8.685 42.5877 8.02953 42.6969 7.42868 42.6969C6.55472 42.6969 5.79 42.4784 5.18915 42.1507C4.5883 41.823 4.0967 41.4406 3.71434 40.949C3.33198 40.4574 3.00425 39.9112 2.73113 39.3649C2.51264 38.7641 2.29415 38.2179 2.13028 37.617C1.96641 36.9069 1.85717 36.1422 1.80255 35.3775C1.74792 34.6128 1.80255 33.7934 1.91179 32.9195H0.273113V43.5709H1.80255C1.80255 42.7516 2.02104 42.3692 2.29415 42.3146C2.56726 42.3146 3.00425 42.3692 3.49585 42.6423C4.04208 42.9154 4.5883 43.1885 5.24377 43.5163C5.89925 43.844 6.60934 44.0079 7.42868 43.9532C8.685 43.9532 9.72283 43.6801 10.5968 43.2432C11.4708 42.8062 12.2355 42.2599 12.8363 41.6045C13.4372 40.949 13.9288 40.1297 14.3111 39.3103C14.6935 38.4364 15.0212 37.5624 15.2397 36.6338C15.786 33.7934 15.4036 30.8984 14.2019 28.0034C13.0002 25.0538 11.0338 21.8857 8.35727 18.4445M95.3165 14.2385H96.6275C96.6275 13.4738 96.7914 12.8183 96.9552 12.2175C97.0645 11.7259 97.3376 11.2889 97.6653 10.8519C97.993 10.4149 98.5393 10.1964 99.1948 10.1964H101.216V40.8944C101.216 41.3314 101.161 41.6591 100.997 41.8776C100.833 42.0961 100.67 42.2053 100.56 42.2599C100.396 42.3692 100.178 42.3692 99.9595 42.2599V43.5163H105.749V42.2599C105.531 42.3692 105.312 42.3692 105.149 42.2599C104.985 42.2599 104.821 42.0961 104.712 41.8776C104.602 41.6591 104.493 41.3314 104.493 40.8944V10.1964H106.46C107.115 10.1964 107.607 10.4149 107.989 10.8519C108.371 11.2889 108.644 11.7259 108.808 12.2175C108.972 12.8183 109.081 13.4738 109.081 14.2385H110.338V9.15861H95.3165V14.2385ZM28.6223 33.7388C28.8408 32.4279 29.0593 31.0077 29.3324 29.5329C29.6055 28.0034 29.8786 26.5286 30.1517 24.9992C30.4248 23.4698 30.6979 21.9949 30.971 20.5747C31.2442 19.1546 31.4627 17.789 31.7358 16.5873C31.9543 17.789 32.1181 19.1546 32.3912 20.5747C32.6097 21.9949 32.8828 23.4698 33.1013 24.9992C33.3198 26.5286 33.5929 28.058 33.8114 29.5329C34.0299 31.0623 34.2484 32.4279 34.4669 33.7388H28.6769H28.6223ZM40.4208 42.2599C40.1477 42.2053 39.9292 42.0415 39.7107 41.8776C39.4922 41.6591 39.3829 41.386 39.3283 40.8944C39.3283 40.8944 39.2737 40.4028 39.1098 39.4742C38.946 38.5456 38.7275 37.3439 38.509 35.8691C38.2905 34.3943 38.0174 32.701 37.6896 30.7892C37.4165 28.8774 37.0888 26.9656 36.761 24.9992C35.9963 20.4109 35.177 15.1671 34.2484 9.26785H31.7904L28.8954 24.9992C28.513 26.9656 28.1853 28.932 27.8576 30.7892C27.5298 32.701 27.2021 34.3943 26.929 35.8691C26.6559 37.3439 26.4374 38.5456 26.2735 39.4742C26.1096 40.4028 26.055 40.8397 26.055 40.8944C25.9458 41.3314 25.7819 41.6591 25.618 41.8776C25.3995 42.0415 25.181 42.2053 24.9079 42.2599C24.6348 42.3146 24.3071 42.3146 24.034 42.2599V43.4616H28.6223V42.2599C28.2945 42.3146 28.0214 42.3146 27.8576 42.2599C27.6937 42.2053 27.5844 42.0415 27.4752 41.8776C27.366 41.6591 27.366 41.386 27.4752 40.8944C27.4752 40.8397 27.5844 40.2389 27.7483 39.2011C27.9122 38.1086 28.1853 36.6884 28.513 34.9405H34.6854C34.9585 36.6884 35.177 38.1086 35.3409 39.2011C35.5047 40.2935 35.614 40.8397 35.614 40.8944C35.6686 41.3314 35.614 41.6591 35.5047 41.8776C35.3955 42.0415 35.2316 42.2053 35.0677 42.2599C34.8493 42.3146 34.5761 42.3146 34.303 42.2599V43.4616H41.3494V42.2599C41.0216 42.3146 40.7485 42.3146 40.4754 42.2599M51.2907 10.3057C51.5638 10.2511 51.7823 10.2511 51.9462 10.3057C52.0554 10.3603 52.1646 10.5242 52.3285 10.7427C52.4924 10.9612 52.547 11.2889 52.547 11.7805V40.949C52.547 41.386 52.4924 41.7137 52.3285 41.9322C52.1646 42.1507 52.0554 42.2599 51.9462 42.3146C51.7277 42.4238 51.5092 42.4238 51.2907 42.3146V43.5709H57.0807V42.3146C56.8076 42.4238 56.6437 42.4238 56.4798 42.3146C56.3706 42.3146 56.2067 42.1507 56.0975 41.9322C55.9336 41.7137 55.879 41.386 55.879 40.949V11.7805C55.879 11.2889 55.9336 10.9612 56.0975 10.7427C56.2613 10.5242 56.3706 10.4149 56.4798 10.3057C56.6437 10.2511 56.8622 10.2511 57.0807 10.3057V9.15861H51.2907V10.3057ZM79.9676 10.4149C80.2407 10.3603 80.4592 10.3603 80.6231 10.4149C80.7869 10.4696 80.9508 10.6334 81.1147 10.7973C81.2785 11.0158 81.3331 11.3435 81.3331 11.7805V38.3817L72.812 9.15861H67.896V10.3603C68.1691 10.3057 68.3876 10.3057 68.5514 10.3603C68.7153 10.4149 68.8792 10.5788 69.043 10.7427C69.2069 10.9612 69.2615 11.2889 69.2615 11.7259V40.8398C69.2615 41.2767 69.2069 41.6045 69.043 41.823C68.8792 42.0415 68.7153 42.1507 68.5514 42.2053C68.3329 42.26 68.1145 42.26 67.896 42.2053V43.4616H72.1019V42.2053C71.8288 42.26 71.5557 42.26 71.3918 42.2053C71.228 42.1507 71.0641 41.9868 70.9548 41.823C70.791 41.6045 70.7363 41.3314 70.7363 40.8398V15.8772L78.7113 43.4616H82.7533V11.7805C82.7533 11.3435 82.808 11.0158 82.9718 10.7973C83.1357 10.5788 83.2449 10.4696 83.4088 10.4149C83.5727 10.3603 83.8458 10.3603 84.1189 10.4149V9.21322H79.9129V10.4149H79.9676Z" fill="white"/>
</svg>
