<svg width="384" height="44" viewBox="0 0 384 44" fill="none" xmlns="http://www.w3.org/2000/svg">
<path d="M223.313 42.8803L224.361 43.93H261.335V38.1918H229.044V30.2842H250.572L250.432 25.7356L249.453 24.546H228.974V6.56155H261.265V0.823307H223.173V42.8803H223.313ZM369.043 37.0721C368.553 38.1918 367.645 38.1218 366.666 38.2618C361.564 38.8916 355.134 37.8419 349.892 38.1218L341.155 22.0268C344.09 18.038 346.257 11.3901 349.123 7.75119C349.961 6.63153 350.241 6.7015 351.499 6.56155C353.526 6.35161 367.435 6.42159 368.414 6.98142L377.08 22.1667L369.112 37.1421L369.043 37.0721ZM372.607 1.94297C372.118 0.823311 371.209 0.893302 370.231 0.753345C362.892 -0.0863957 353.736 1.38314 346.257 0.893289L334.724 22.0268L346.886 43.5801L371.908 43.7901L384 21.9568L372.677 1.87298L372.607 1.94297ZM185.22 0.823307H179.489V42.8803L180.537 43.93H217.511V38.1918H185.22V0.823307ZM321.724 43.93H327.455V0.753345H321.724V43.93ZM307.326 21.6769L269.233 0.823307V42.8803L270.422 43.86L274.965 44V10.9002L307.256 29.2345V44L311.799 43.86L312.987 42.8803V0.823307H307.256V21.6769H307.326ZM142.864 37.1421V0.823307H137.133V42.8803L138.181 43.93H175.155V38.1918H143.913L142.864 37.1421ZM86.8089 38.1918H22.1565C31.3826 30.0743 42.9152 24.406 54.2381 19.7175C65.6309 24.0561 77.5828 30.2143 86.8089 38.1918ZM105.191 0.0535611C88.2767 0.963281 70.0342 7.05139 54.308 12.8596C38.8613 6.98142 20.549 0.963281 3.91409 0.0535611C2.44631 -0.0164173 0.908628 -0.22637 0 1.1732V43.93H5.73134V6.56155C19.85 7.33131 33.3396 11.67 46.6895 15.9387L28.5169 26.1555C22.8555 30.8441 10.8336 34.6929 16.1456 44H93.3789C94.8467 34.9728 91.4918 33.5032 84.9916 29.0246L62.4856 15.9387C75.7656 11.6 89.3251 7.40129 103.444 6.56155V43.93H109.175V1.1732C108.266 -0.156391 106.729 -0.0164173 105.261 0.0535611M121.267 43.93H126.998V0.753345H121.267V43.93Z" fill="white"/>
</svg>
