<svg width="257" height="101" viewBox="0 0 257 101" fill="none" xmlns="http://www.w3.org/2000/svg">
<path d="M137.062 95.8737V91.6084H140.182C141.328 91.6084 142.283 92.4996 142.283 93.7729C142.283 95.0461 141.328 95.9373 140.182 95.9373H137.062V95.8737ZM137.062 99.948V96.8923H140.245C142.283 96.8923 143.492 95.428 143.492 93.7092C143.492 91.9903 142.283 90.5261 140.245 90.5261H135.853V99.948H137.062ZM115.099 96.8286H110.898L112.999 92.8816L115.099 96.8286ZM115.736 97.8472L116.882 99.948H118.155L112.999 90.5261L107.842 99.948H109.115L110.261 97.8472H115.672H115.736ZM71.7461 36.9235C71.7461 56.0855 56.1491 71.6824 36.9871 71.6824C17.8251 71.6824 2.22814 56.0855 2.22814 36.9235C2.22814 17.7614 17.8251 2.16447 36.9871 2.16447C56.1491 2.16447 71.7461 17.7614 71.7461 36.9235ZM73.8469 36.9235C73.8469 16.5519 57.3587 0 37.0508 0C16.7429 0 0 16.5519 0 36.9235C0 57.295 16.4882 73.8469 37.0508 73.8469C57.6133 73.8469 73.8469 57.3587 73.8469 36.9235ZM70.0909 90.5898H68.945V100.012H70.0909V90.5898ZM79.0671 99.948H85.3059V98.8021H80.213V90.5261H79.0671V99.948ZM99.2477 90.5898V94.6004H94.0275V90.5898H92.8816V100.012H94.0275V95.7464H99.2477V100.012H100.394V90.5898H99.2477ZM159.789 72.4464L138.463 46.1543C149.158 44.6264 157.434 35.3956 157.434 24.1912C157.434 12.9869 147.567 2.03715 135.344 2.03715H99.6933V4.20163H135.344C146.102 4.20163 155.333 13.2415 155.333 24.1912C155.333 35.1409 146.357 44.1808 135.344 44.1808H99.6933V46.3453H135.344C135.471 46.3453 135.535 46.3453 135.662 46.3453L157.052 72.3827H159.853L159.789 72.4464ZM157.498 90.5898V96.5103C157.498 98.0382 156.606 99.0567 155.079 99.0567C153.551 99.0567 152.659 98.0382 152.659 96.5103V90.5898H151.514V96.5103C151.514 98.6111 152.85 100.203 155.079 100.203C157.307 100.203 158.644 98.6111 158.644 96.5103V90.5898H157.498ZM171.503 95.8737H168.702V91.6084H171.503C172.649 91.6084 173.604 92.4996 173.604 93.7729C173.604 95.0461 172.649 95.9373 171.503 95.9373M175.004 99.948L172.713 96.7013C173.986 96.3193 174.75 95.1097 174.75 93.7092C174.75 92.3087 173.54 90.5261 171.567 90.5261H167.556V99.948H168.702V96.8923H171.503L173.668 99.948H175.004ZM185.19 96.8286L187.291 92.8816L189.392 96.8286H185.19ZM187.291 90.5898L182.135 100.012H183.408L184.554 97.9108H189.965L191.111 100.012H192.384L187.227 90.5898H187.291ZM254.899 36.9235C254.899 39.9792 254.517 42.9713 253.753 45.836C249.934 42.3983 246.942 37.1145 243.886 31.7669C238.22 21.7721 232.299 11.3953 220.14 11.3953C207.981 11.3953 202.06 21.7721 196.395 31.7669C193.339 37.1781 190.347 42.3983 186.527 45.836C185.763 42.9713 185.381 40.0428 185.381 36.9235C185.381 17.7614 200.978 2.16447 220.14 2.16447C239.302 2.16447 254.899 17.7614 254.899 36.9235ZM187.227 48.1278C191.62 44.4355 194.867 38.706 198.241 32.7855C203.588 23.3 209.19 13.4962 220.14 13.4962C231.09 13.4962 236.628 23.3 242.04 32.7855C245.414 38.706 248.66 44.4355 253.053 48.1278C252.034 51.1199 250.634 53.921 248.915 56.4674C247.133 54.4939 245.477 52.3295 243.759 50.1013C238.093 42.5893 232.172 34.8226 220.14 34.8226C208.108 34.8226 202.251 42.5893 196.522 50.1013C194.803 52.3295 193.148 54.5576 191.365 56.4674C189.647 53.921 188.246 51.1199 187.227 48.1278ZM192.639 58.2499C194.612 56.1491 196.395 53.7937 198.241 51.3745C203.588 44.2445 209.19 36.9235 220.14 36.9235C231.09 36.9235 236.628 44.2445 242.04 51.3745C243.886 53.7937 245.668 56.1491 247.578 58.2499C245.859 60.4781 243.886 62.4516 241.658 64.2341C236.501 59.7778 230.644 55.5762 220.14 55.5762C209.636 55.5762 203.779 59.7778 198.559 64.2341C196.331 62.5152 194.357 60.4781 192.639 58.2499ZM200.342 65.5073C205.116 61.433 210.591 57.677 220.14 57.677C229.689 57.677 235.101 61.3693 239.939 65.5073C234.337 69.3906 227.525 71.7461 220.14 71.7461C212.756 71.7461 206.007 69.4543 200.342 65.5073ZM257 36.9235C257 16.5519 240.512 0 220.204 0C199.896 0 183.153 16.5519 183.153 36.9235C183.153 57.295 199.641 73.8469 220.204 73.8469C240.766 73.8469 257 57.3587 257 36.9235Z" fill="white"/>
</svg>
