<svg width="184" height="64" viewBox="0 0 184 64" fill="none" xmlns="http://www.w3.org/2000/svg">
<path d="M20.7932 47.7152C22.0859 48.0842 22.1783 47.7152 22.64 46.7466C24.9484 41.4884 26.7951 34.5697 28.8727 28.9887C31.3197 22.3468 33.9051 14.3672 36.9523 8.04819C37.968 5.88034 39.1684 3.85087 41.6153 3.159C42.8619 2.79001 45.355 3.11288 45.355 1.49853C45.355 -0.715446 43.0004 0.253164 41.7077 0.299289C37.7372 0.391538 33.7666 0.20704 29.8423 0.299289C29.7961 0.714409 29.6114 1.08341 29.6114 1.49853C29.7038 3.3435 30.7657 2.60551 31.9661 2.74388C34.8747 3.06676 33.9975 5.05011 33.4435 7.17183C30.9503 16.6735 26.1488 26.2673 23.471 35.769L23.1016 36.2302C20.7932 28.6197 17.6999 21.1937 15.2991 13.6292C14.6528 11.6459 12.9445 6.84895 12.8522 5.00398C12.7137 1.59077 16.0378 3.66637 17.3305 2.42101C17.7922 2.0059 17.8384 0.852785 17.5152 0.345416C17.0074 -0.34645 14.3296 0.207044 13.4985 0.253169C9.11249 0.345417 4.68028 0.114794 0.248074 0.345416C-0.952315 3.98925 2.51035 2.28264 4.08009 3.29738C5.0958 3.94312 8.18911 12.3839 8.83547 14.0905C13.1292 25.2065 16.7765 36.5992 20.8855 47.7613M43.3236 7.3102C42.4925 10.0777 45.4474 9.10906 47.1094 9.24743C49.4179 9.43193 49.3717 10.216 49.6487 12.3378V43.7946C49.2794 46.1008 46.0937 45.1783 44.4316 45.5935C44.1546 45.9625 44.1085 47.7152 44.524 47.8074C48.7715 47.7152 52.9729 47.7152 57.2204 47.8074C59.0672 47.8074 61.6988 48.8683 60.4984 45.6396C59.2518 45.3628 56.7125 45.7318 55.8815 44.6248C55.0966 43.5179 55.466 39.3667 55.4198 37.7984C55.189 29.865 54.7735 20.8247 55.2351 12.8913C55.2351 12.2455 55.466 10.0315 55.8353 9.66255C56.9434 8.64781 60.8216 9.98542 61.1909 8.74006C61.8835 6.38771 59.7135 6.75671 58.1438 6.80283C54.4964 6.94121 50.8029 7.07958 47.1094 6.98733C46.2322 6.98733 43.6006 6.29546 43.3236 7.3102ZM174.12 54.311C122.457 63.9049 68.6703 62.7056 17.0535 53.573C14.0525 53.0195 10.7746 52.097 7.77359 51.7741C7.58892 51.7741 6.94255 51.6358 6.94255 51.8664C22.4553 55.8331 38.1988 58.7389 54.0809 60.9068C94.1555 66.3956 135.8 64.689 175.043 54.9106L184 52.3276C180.676 52.9272 177.398 53.7114 174.12 54.311ZM120.656 10.2622C120.98 8.50944 124.95 8.74006 126.335 8.87843C133.122 9.5703 136.908 18.6107 132.06 23.7305C129.89 26.0367 125.273 27.0053 122.226 26.8208C121.718 26.8208 121.026 26.7286 120.656 26.3596V10.2622ZM125.689 47.7613C125.92 47.2539 126.104 46.1008 125.643 45.7318C123.473 45.1784 121.164 46.4237 120.703 43.3795C120.241 40.2892 120.703 35.8151 120.703 32.5864C120.703 31.5255 120.149 30.2802 120.887 29.2193C122.226 28.9887 123.842 29.2193 125.042 29.7728C128.551 31.4333 133.399 41.4884 135.569 45.0861C135.938 45.7318 136.446 46.7466 137.046 47.1617C138.524 48.2226 142.54 47.7613 144.433 47.8074C145.588 47.8074 148.034 48.7299 147.896 46.7927C147.804 45.1783 145.68 45.5012 144.526 45.0861C143.094 44.6248 142.263 43.564 141.34 42.457L131.783 27.7894C145.218 23.8227 143.187 7.44858 129.059 6.43384C124.396 6.11097 119.641 6.80283 115.024 6.98733C114.1 6.98733 110.407 6.75671 110.038 7.26408C109.761 7.63307 109.761 8.78618 110.13 9.06293C111.238 9.93929 114.516 7.95594 114.885 11.4153C114.331 21.7471 115.716 33.0015 114.885 43.2411C114.654 46.5159 111.93 45.0861 109.668 45.778C109.668 46.2853 109.484 47.3001 109.899 47.6229L125.735 47.7613H125.689ZM65.1153 9.43192C66.9159 9.70867 68.8088 8.60168 69.2243 11.1385C71.0249 24.2379 62.9915 47.0233 82.8903 48.4071C92.2625 49.0528 99.6496 45.2706 100.758 35.3539C101.635 27.7433 100.665 19.1642 101.173 11.4153C101.219 10.954 101.45 10.216 101.819 9.89317C102.928 8.78618 105.421 9.66255 106.067 8.97068C106.39 8.46331 106.436 7.07958 105.744 6.84895L92.6781 6.98733C91.6624 6.98733 91.5238 8.41719 92.2164 8.97068C92.9551 9.5703 93.3706 9.0168 93.9708 9.06293C96.5101 9.29355 97.1103 10.0315 97.295 12.5223C97.6181 16.9502 97.295 21.6088 97.295 25.9906C97.2488 33.0476 98.4492 44.3481 88.7075 45.5012C72.964 47.3923 75.1339 32.4941 75.1801 21.8855C75.1801 18.6568 74.7646 14.644 75.1801 11.4614C75.6418 8.09431 78.3657 9.66255 80.7665 9.2013C81.0897 8.18657 81.3205 6.71058 79.8893 6.66446C78.5042 6.61834 76.4728 7.03345 75.0416 7.07958C71.9483 7.17183 67.7931 6.71058 64.8844 7.07958C63.5455 7.26407 63.7764 9.29355 65.1153 9.52417M150.528 45.5473C149.235 45.7318 149.42 47.6691 150.528 47.8074C158.884 47.8997 167.287 47.6229 175.643 47.8074C176.751 47.8074 178.829 48.5454 179.522 47.3923C180.306 46.1008 182.015 39.8279 181.922 38.3519C181.922 37.6601 181.461 36.9682 180.768 37.4295C180.537 37.5678 179.475 40.2892 179.106 40.8427C175.967 45.8702 169.688 45.778 164.332 45.409C162.208 45.2706 161.47 44.9016 161.239 42.6876C160.869 38.5364 161.331 33.6472 161.239 29.4038C161.239 28.8042 160.869 28.2968 161.239 27.6511H167.148C167.518 27.6511 169.134 28.1123 169.549 28.2507C172.689 29.4499 171.35 31.7561 172.504 33.6934C173.012 34.5236 173.843 34.293 173.981 33.3705C174.351 30.603 173.889 26.4057 173.981 23.4537C173.981 22.6696 174.628 19.5793 173.658 19.2564C173.381 19.1642 172.781 19.2564 172.642 19.5332C172.273 20.1328 172.135 22.0239 171.673 23.0386C170.565 25.4371 167.795 25.1142 165.579 25.2065C164.101 25.2526 162.716 25.5294 161.193 25.2065V10.1238C161.193 9.7548 162.07 9.47805 162.393 9.47805C164.563 9.24743 171.073 9.29355 172.919 10.0315C174.397 10.6773 175.643 12.1071 176.336 13.537C176.751 14.3672 177.398 16.7657 177.86 17.2731C178.183 17.5959 178.598 17.6421 179.014 17.4576L179.152 17.2269C179.383 15.4281 178.921 13.6293 178.783 11.8304C178.737 10.7695 179.06 7.4947 178.506 6.84895C178.367 6.71058 178.229 6.61834 178.044 6.57221L149.927 7.3102C149.05 10.0315 151.405 9.15518 153.021 9.29355C156.299 9.61642 154.729 12.7529 155.375 15.013C154.914 24.0534 155.976 33.7395 155.375 42.7338C155.098 46.516 153.205 45.2706 150.389 45.6396" fill="white"/>
</svg>
