<svg width="48" height="48" viewBox="0 0 48 48" fill="none" xmlns="http://www.w3.org/2000/svg">
<g clip-path="url(#clip0_1667_1073)">
<path opacity="0.2" d="M30 9H18C15.6131 9 13.3239 9.94821 11.636 11.636C9.94821 13.3239 9 15.6131 9 18V40.5C9 40.8978 9.15804 41.2794 9.43934 41.5607C9.72064 41.842 10.1022 42 10.5 42H15V28.5C15 27.7044 15.3161 26.9413 15.8787 26.3787C16.4413 25.8161 17.2044 25.5 18 25.5H30C30.7956 25.5 31.5587 25.8161 32.1213 26.3787C32.6839 26.9413 33 27.7044 33 28.5V42H37.5C37.8978 42 38.2794 41.842 38.5607 41.5607C38.842 41.2794 39 40.8978 39 40.5V18C39 15.6131 38.0518 13.3239 36.364 11.636C34.6761 9.94821 32.3869 9 30 9Z" fill="#3C8AA4"/>
<path d="M18 9H30C32.3869 9 34.6761 9.94821 36.364 11.636C38.0518 13.3239 39 15.6131 39 18V40.5C39 40.8978 38.842 41.2794 38.5607 41.5607C38.2794 41.842 37.8978 42 37.5 42H10.5C10.1022 42 9.72064 41.842 9.43934 41.5607C9.15804 41.2794 9 40.8978 9 40.5V18C9 15.6131 9.94821 13.3239 11.636 11.636C13.3239 9.94821 15.6131 9 18 9Z" stroke="#3C8AA4" stroke-width="2" stroke-linecap="round" stroke-linejoin="round"/>
<path d="M15 42V28.5C15 27.7044 15.3161 26.9413 15.8787 26.3787C16.4413 25.8161 17.2044 25.5 18 25.5H30C30.7956 25.5 31.5587 25.8161 32.1213 26.3787C32.6839 26.9413 33 27.7044 33 28.5V42" stroke="#3C8AA4" stroke-width="2" stroke-linecap="round" stroke-linejoin="round"/>
<path d="M18 9V6C18 5.20435 18.3161 4.44129 18.8787 3.87868C19.4413 3.31607 20.2044 3 21 3H27C27.7956 3 28.5587 3.31607 29.1213 3.87868C29.6839 4.44129 30 5.20435 30 6V9" stroke="#3C8AA4" stroke-width="2" stroke-linecap="round" stroke-linejoin="round"/>
<path d="M21 16.5H27" stroke="#3C8AA4" stroke-width="2" stroke-linecap="round" stroke-linejoin="round"/>
<path d="M15 31.5H33" stroke="#3C8AA4" stroke-width="2" stroke-linecap="round" stroke-linejoin="round"/>
<path d="M27 31.5V34.5" stroke="#3C8AA4" stroke-width="2" stroke-linecap="round" stroke-linejoin="round"/>
</g>
<defs>
<clipPath id="clip0_1667_1073">
<rect width="48" height="48" fill="white"/>
</clipPath>
</defs>
</svg>
