<svg width="16" height="16" viewBox="0 0 16 16" fill="none" xmlns="http://www.w3.org/2000/svg">
<g clip-path="url(#clip0_2016_3051)">
<path d="M6 15H9" stroke="#323232" stroke-width="1.3" stroke-linecap="round" stroke-linejoin="round"/>
<path d="M6.10621 1H8.89371C8.89371 1 12.1437 11 7.49996 11C2.85621 11 6.10621 1 6.10621 1Z" stroke="#323232" stroke-width="1.3" stroke-linecap="round" stroke-linejoin="round"/>
<path d="M7.5 11V15" stroke="#323232" stroke-width="1.3" stroke-linecap="round" stroke-linejoin="round"/>
<path d="M13.75 3.875C14.0952 3.875 14.375 3.59518 14.375 3.25C14.375 2.90482 14.0952 2.625 13.75 2.625C13.4048 2.625 13.125 2.90482 13.125 3.25C13.125 3.59518 13.4048 3.875 13.75 3.875Z" fill="#323232"/>
<path d="M12.25 1.875C12.5952 1.875 12.875 1.59518 12.875 1.25C12.875 0.904822 12.5952 0.625 12.25 0.625C11.9048 0.625 11.625 0.904822 11.625 1.25C11.625 1.59518 11.9048 1.875 12.25 1.875Z" fill="#323232"/>
<path d="M12.25 6.875C12.5952 6.875 12.875 6.59518 12.875 6.25C12.875 5.90482 12.5952 5.625 12.25 5.625C11.9048 5.625 11.625 5.90482 11.625 6.25C11.625 6.59518 11.9048 6.875 12.25 6.875Z" fill="#323232"/>
<path d="M5.2627 4.5H9.7377" stroke="#323232" stroke-width="1.3" stroke-linecap="round" stroke-linejoin="round"/>
</g>
<defs>
<clipPath id="clip0_2016_3051">
<rect width="16" height="16" fill="white"/>
</clipPath>
</defs>
</svg>
