<svg width="32" height="32" viewBox="0 0 32 32" fill="none" xmlns="http://www.w3.org/2000/svg">
<path d="M29.3332 16C29.3332 8.63629 23.3636 2.66669 15.9998 2.66669C8.6361 2.66669 2.6665 8.63629 2.6665 16C2.6665 22.2528 6.97157 27.4998 12.779 28.9408V20.0747H10.0297V16H12.779V14.2443C12.779 9.70615 14.8329 7.60269 19.2884 7.60269C20.1332 7.60269 21.5908 7.76855 22.187 7.93389V11.6272C21.8724 11.5942 21.3257 11.5776 20.6468 11.5776C18.4606 11.5776 17.6158 12.4059 17.6158 14.559V16H21.971L21.2228 20.0747H17.6158V29.2358C24.218 28.4384 29.3337 22.8171 29.3337 16H29.3332Z" fill="#3C8AA4"/>
</svg>
