<svg width="48" height="48" viewBox="0 0 48 48" fill="none" xmlns="http://www.w3.org/2000/svg">
<g clip-path="url(#clip0_1667_1065)">
<path opacity="0.2" d="M39.3122 13.5H8.68596C8.31726 13.5 7.96127 13.6347 7.685 13.8788C7.40873 14.123 7.23124 14.4597 7.18596 14.8256L4.51408 37.3256C4.48937 37.5367 4.5098 37.7507 4.57404 37.9533C4.63827 38.1559 4.74483 38.3426 4.88667 38.5009C5.0285 38.6592 5.20236 38.7856 5.39673 38.8717C5.59109 38.9577 5.80153 39.0014 6.01408 39H41.9841C42.1966 39.0014 42.4071 38.9577 42.6014 38.8717C42.7958 38.7856 42.9697 38.6592 43.1115 38.5009C43.2533 38.3426 43.3599 38.1559 43.4241 37.9533C43.4884 37.7507 43.5088 37.5367 43.4841 37.3256L40.8122 14.8256C40.7669 14.4597 40.5894 14.123 40.3132 13.8788C40.0369 13.6347 39.6809 13.5 39.3122 13.5Z" fill="#3C8AA4"/>
<path d="M39.3122 13.5H8.68596C8.31726 13.5 7.96127 13.6347 7.685 13.8788C7.40873 14.123 7.23124 14.4597 7.18596 14.8256L4.51408 37.3256C4.48937 37.5367 4.5098 37.7507 4.57404 37.9533C4.63827 38.1559 4.74483 38.3426 4.88667 38.5009C5.0285 38.6592 5.20236 38.7856 5.39673 38.8717C5.59109 38.9577 5.80153 39.0014 6.01408 39H41.9841C42.1966 39.0014 42.4071 38.9577 42.6014 38.8717C42.7958 38.7856 42.9697 38.6592 43.1115 38.5009C43.2533 38.3426 43.3599 38.1559 43.4241 37.9533C43.4884 37.7507 43.5088 37.5367 43.4841 37.3256L40.8122 14.8256C40.7669 14.4597 40.5894 14.123 40.3132 13.8788C40.0369 13.6347 39.6809 13.5 39.3122 13.5Z" stroke="#3C8AA4" stroke-width="2" stroke-linecap="round" stroke-linejoin="round"/>
<path d="M16.5 19.5V12C16.5 10.0109 17.2902 8.10322 18.6967 6.6967C20.1032 5.29018 22.0109 4.5 24 4.5C25.9891 4.5 27.8968 5.29018 29.3033 6.6967C30.7098 8.10322 31.5 10.0109 31.5 12V19.5" stroke="#3C8AA4" stroke-width="2" stroke-linecap="round" stroke-linejoin="round"/>
</g>
<defs>
<clipPath id="clip0_1667_1065">
<rect width="48" height="48" fill="white"/>
</clipPath>
</defs>
</svg>
