<svg width="24" height="24" viewBox="0 0 24 24" fill="none" xmlns="http://www.w3.org/2000/svg">
<path d="M12 21C16.9706 21 21 16.9706 21 12C21 7.02944 16.9706 3 12 3C7.02944 3 3 7.02944 3 12C3 16.9706 7.02944 21 12 21Z" stroke="#8D8D8D" stroke-width="1.3" stroke-linecap="round" stroke-linejoin="round"/>
<path d="M12 21C16.9706 21 21 16.9706 21 12C21 7.02944 16.9706 3 12 3C7.02944 3 3 7.02944 3 12C3 16.9706 7.02944 21 12 21Z" stroke="#8D8D8D" stroke-width="1.3" stroke-linecap="round" stroke-linejoin="round"/>
<path d="M10.5 13.0987C9.92808 12.7685 9.48109 12.2589 9.22836 11.6487C8.97564 11.0386 8.9313 10.3621 9.10222 9.72421C9.27315 9.08631 9.64978 8.52264 10.1737 8.12061C10.6977 7.71858 11.3396 7.50067 12 7.50067C12.6604 7.50067 13.3024 7.71858 13.8263 8.12061C14.3502 8.52264 14.7269 9.08631 14.8978 9.72421C15.0687 10.3621 15.0244 11.0386 14.7716 11.6487C14.5189 12.2589 14.0719 12.7685 13.5 13.0987L15 16.5H9L10.5 13.0987Z" stroke="#8D8D8D" stroke-width="1.3" stroke-linecap="round" stroke-linejoin="round"/>
</svg>
