<svg width="48" height="48" viewBox="0 0 48 48" fill="none" xmlns="http://www.w3.org/2000/svg">
<g clip-path="url(#clip0_1667_1051)">
<path opacity="0.2" d="M35.4227 7.5C33.9078 7.50472 32.4098 7.819 31.0208 8.42356C29.6318 9.02812 28.381 9.91019 27.3452 11.0156C25.182 13.3093 23.9843 16.3473 24.0002 19.5L43.5002 11.0156C42.4644 9.9101 41.2136 9.02797 39.8246 8.42341C38.4355 7.81884 36.9376 7.50461 35.4227 7.5Z" fill="#3C8AA4"/>
<path opacity="0.2" d="M33.105 18.4087C30.0321 17.5864 26.7587 18.0138 24 19.5975L41.5894 33C41.9988 31.4888 42.1038 29.9112 41.8981 28.3591C41.6924 26.8069 41.1802 25.3112 40.3913 23.9587C39.6014 22.5999 38.5513 21.4103 37.301 20.4579C36.0507 19.5056 34.6248 18.8092 33.105 18.4087Z" fill="#3C8AA4"/>
<path opacity="0.2" d="M20.655 11.0157C19.6221 9.90663 18.3718 9.02215 16.9821 8.41737C15.5924 7.8126 14.0931 7.50049 12.5775 7.50049C11.0619 7.50049 9.56257 7.8126 8.17288 8.41737C6.78319 9.02215 5.53293 9.90663 4.5 11.0157L24 19.5001C24.0159 16.3473 22.8182 13.3093 20.655 11.0157Z" fill="#3C8AA4"/>
<path opacity="0.2" d="M14.8955 18.4087C13.3756 18.8092 11.9497 19.5056 10.6995 20.4579C9.44916 21.4103 8.39903 22.5999 7.6092 23.9587C6.82026 25.3112 6.30806 26.8069 6.10237 28.3591C5.89669 29.9112 6.00162 31.4888 6.41108 33L24.0005 19.5975C21.2417 18.0138 17.9683 17.5864 14.8955 18.4087Z" fill="#3C8AA4"/>
<path d="M24.0002 19.5001C23.9843 16.3473 25.182 13.3093 27.3452 11.0157C28.3781 9.90663 29.6283 9.02215 31.018 8.41737C32.4077 7.8126 33.9071 7.50049 35.4227 7.50049C36.9382 7.50049 38.4376 7.8126 39.8273 8.41737C41.217 9.02215 42.4672 9.90663 43.5002 11.0157L24.0002 19.5001Z" stroke="#3C8AA4" stroke-width="2" stroke-linecap="round" stroke-linejoin="round"/>
<path d="M24 19.5973C26.7554 18.0169 30.0234 17.5884 33.093 18.4051C36.1627 19.2219 38.7857 21.2178 40.3912 23.9586C41.1802 25.311 41.6924 26.8068 41.8981 28.3589C42.1038 29.9111 41.9988 31.4886 41.5894 32.9998L24 19.5973Z" stroke="#3C8AA4" stroke-width="2" stroke-linecap="round" stroke-linejoin="round"/>
<path d="M24 19.5001C24.0159 16.3473 22.8182 13.3093 20.655 11.0157C19.6221 9.90663 18.3718 9.02215 16.9821 8.41737C15.5924 7.8126 14.0931 7.50049 12.5775 7.50049C11.0619 7.50049 9.56257 7.8126 8.17288 8.41737C6.78319 9.02215 5.53293 9.90663 4.5 11.0157L24 19.5001Z" stroke="#3C8AA4" stroke-width="2" stroke-linecap="round" stroke-linejoin="round"/>
<path d="M24.0005 19.5973C21.2451 18.0169 17.9771 17.5884 14.9074 18.4051C11.8377 19.2219 9.21478 21.2178 7.6092 23.9586C6.82026 25.311 6.30806 26.8068 6.10237 28.3589C5.89669 29.9111 6.00162 31.4886 6.41108 32.9998L24.0005 19.5973Z" stroke="#3C8AA4" stroke-width="2" stroke-linecap="round" stroke-linejoin="round"/>
<path d="M24 19.5977V42.0002" stroke="#3C8AA4" stroke-width="2" stroke-linecap="round" stroke-linejoin="round"/>
</g>
<defs>
<clipPath id="clip0_1667_1051">
<rect width="48" height="48" fill="white"/>
</clipPath>
</defs>
</svg>
