<svg width="24" height="24" viewBox="0 0 24 24" fill="none" xmlns="http://www.w3.org/2000/svg">
<g clip-path="url(#clip0_2213_89)">
<path d="M6.75 9.75C6.75 8.95435 7.06607 8.19129 7.62868 7.62868C8.19129 7.06607 8.95435 6.75 9.75 6.75L11.25 9.75L10.095 11.4816C10.5532 12.5763 11.4237 13.4468 12.5184 13.905L14.25 12.75L17.25 14.25C17.25 15.0456 16.9339 15.8087 16.3713 16.3713C15.8087 16.9339 15.0456 17.25 14.25 17.25C12.2609 17.25 10.3532 16.4598 8.9467 15.0533C7.54018 13.6468 6.75 11.7391 6.75 9.75Z" stroke="white" stroke-width="1.3" stroke-linecap="round" stroke-linejoin="round"/>
<path d="M7.49356 19.7916C9.38406 20.8857 11.608 21.255 13.7506 20.8305C15.8933 20.4061 17.8084 19.2169 19.1391 17.4847C20.4697 15.7525 21.125 13.5955 20.9827 11.4158C20.8404 9.23617 19.9103 7.18265 18.3657 5.63813C16.8212 4.0936 14.7677 3.16349 12.588 3.0212C10.4084 2.87892 8.25138 3.53417 6.51916 4.8648C4.78695 6.19543 3.59777 8.1106 3.17333 10.2533C2.74889 12.3959 3.11817 14.6198 4.21231 16.5103L3.0395 20.0119C2.99543 20.144 2.98903 20.2858 3.02103 20.4214C3.05302 20.557 3.12215 20.681 3.22065 20.7795C3.31915 20.878 3.44314 20.9471 3.57871 20.9791C3.71429 21.0111 3.8561 21.0047 3.98825 20.9606L7.49356 19.7916Z" stroke="white" stroke-width="1.3" stroke-linecap="round" stroke-linejoin="round"/>
</g>
<defs>
<clipPath id="clip0_2213_89">
<rect width="24" height="24" fill="white"/>
</clipPath>
</defs>
</svg>
