<svg width="32" height="32" viewBox="0 0 32 32" fill="none" xmlns="http://www.w3.org/2000/svg">
<path fill-rule="evenodd" clip-rule="evenodd" d="M25.4477 6.53892C22.9412 4.04311 19.6077 2.66795 16.0558 2.66669C8.73695 2.66669 2.78046 8.58963 2.77792 15.87C2.77664 18.1974 3.38846 20.469 4.55035 22.471L2.6665 29.3139L9.70529 27.4778C11.6445 28.5301 13.8282 29.0841 16.0501 29.0847H16.0558C23.3735 29.0847 29.3307 23.1611 29.3332 15.8808C29.3344 12.3524 27.9548 9.03536 25.4477 6.53955V6.53892ZM16.0558 26.8548H16.0514C14.0714 26.8542 12.129 26.3249 10.4343 25.3252L10.0313 25.0872L5.85421 26.1767L6.96898 22.1266L6.70667 21.7113C5.60209 19.9639 5.01828 17.9441 5.01956 15.8707C5.0221 9.81981 9.97268 4.89657 16.0604 4.89657C19.008 4.89784 21.7787 6.04065 23.8624 8.11542C25.9462 10.1896 27.0928 12.9475 27.0915 15.8795C27.0889 21.931 22.1384 26.8542 16.0558 26.8542V26.8548ZM22.1091 18.6355C21.7774 18.4703 20.1464 17.6725 19.842 17.5624C19.5377 17.4522 19.3168 17.3971 19.0958 17.7276C18.8749 18.0581 18.2389 18.8014 18.0454 19.0211C17.8518 19.2414 17.6583 19.2687 17.3266 19.1034C16.9949 18.9381 15.926 18.5899 14.6584 17.4661C13.6723 16.5911 13.0063 15.511 12.8128 15.1805C12.6192 14.85 12.7924 14.6715 12.9579 14.5075C13.1069 14.3594 13.2896 14.1219 13.4558 13.9295C13.622 13.737 13.6767 13.599 13.7875 13.3792C13.8983 13.1589 13.8429 12.9665 13.7601 12.8012C13.6773 12.636 13.014 11.012 12.737 10.3516C12.4677 9.70837 12.194 9.79575 11.9909 9.78499C11.7973 9.77548 11.5764 9.77359 11.3549 9.77359C11.1333 9.77359 10.7742 9.8559 10.4699 10.1864C10.1656 10.5169 9.30866 11.3152 9.30866 12.9386C9.30866 14.5619 10.4973 16.1315 10.6635 16.3518C10.8296 16.5722 13.0031 19.9043 16.3309 21.3339C17.1223 21.6739 17.7404 21.8771 18.2224 22.0291C19.0169 22.2805 19.7401 22.245 20.3118 22.1602C20.9492 22.0652 22.2747 21.3618 22.5509 20.5913C22.8272 19.8207 22.8272 19.1597 22.7445 19.0223C22.6618 18.885 22.4402 18.802 22.1085 18.6368L22.1091 18.6355Z" fill="#3C8AA4"/>
</svg>
