<svg width="32" height="32" viewBox="0 0 32 32" fill="none" xmlns="http://www.w3.org/2000/svg">
<path d="M28.8092 9.60403C28.6573 9.04057 28.3605 8.5267 27.9483 8.11359C27.5361 7.70047 27.023 7.40251 26.4598 7.24936C24.3718 6.67603 16.0185 6.6667 16.0185 6.6667C16.0185 6.6667 7.66651 6.65736 5.57717 7.20536C5.01441 7.36556 4.50227 7.66773 4.08993 8.08288C3.67759 8.49802 3.37889 9.01219 3.22251 9.57603C2.67184 11.664 2.66651 15.9947 2.66651 15.9947C2.66651 15.9947 2.66117 20.3467 3.20784 22.4134C3.51451 23.556 4.41451 24.4587 5.55851 24.7667C7.66784 25.34 15.9985 25.3494 15.9985 25.3494C15.9985 25.3494 24.3518 25.3587 26.4398 24.812C27.0032 24.6592 27.5168 24.3619 27.93 23.9496C28.3433 23.5373 28.6417 23.0243 28.7958 22.4614C29.3478 20.3747 29.3518 16.0454 29.3518 16.0454C29.3518 16.0454 29.3785 11.692 28.8092 9.60403ZM13.3465 20.0067L13.3532 12.0067L20.2958 16.0134L13.3465 20.0067Z" fill="#3C8AA4"/>
</svg>
