<svg width="24" height="24" viewBox="0 0 24 24" fill="none" xmlns="http://www.w3.org/2000/svg">
<mask id="mask0_2034_2488" style="mask-type:luminance" maskUnits="userSpaceOnUse" x="3" y="1" width="18" height="22">
<path d="M3 1.71429H21V22.2857H3V1.71429Z" fill="white"/>
</mask>
<g mask="url(#mask0_2034_2488)">
<path d="M7.02891 19.7141H3.29829V7.69726H7.02994L7.02891 19.7141ZM5.16103 6.05772C3.96789 6.05772 3 5.06926 3 3.87612C3 3.30298 3.22768 2.75331 3.63295 2.34804C4.03822 1.94277 4.58789 1.71509 5.16103 1.71509C5.73417 1.71509 6.28384 1.94277 6.68911 2.34804C7.09438 2.75331 7.32206 3.30298 7.32206 3.87612C7.32206 5.06926 6.35417 6.05669 5.16206 6.05669M20.9959 19.7141H17.2725V13.8646C17.2725 12.4698 17.2437 10.6822 15.3326 10.6822C13.3917 10.6822 13.0944 12.1973 13.0944 13.7638V19.7141H9.36686V7.69726H12.9463V9.33577H12.9977C13.4966 8.39155 14.7134 7.39589 16.5288 7.39589C20.3057 7.39589 21 9.88194 21 13.1127V19.7141H20.9959Z" fill="white"/>
</g>
</svg>
